<svg width="323" height="125" viewBox="0 0 323 125" fill="none" xmlns="http://www.w3.org/2000/svg">
<path d="M4.744 16.736L3.448 20H0.832L6.496 5.048H8.704L14.224 20H11.584L10.36 16.736H4.744ZM7.456 8.624L5.344 14.792H9.688L7.456 8.624ZM15.1101 5.432H18.6621C21.5741 5.432 23.0301 6.752 23.0301 9.392C23.0301 10.688 22.6061 11.632 21.7581 12.224C22.5261 12.352 23.1261 12.76 23.5581 13.448C24.0061 14.136 24.2301 14.944 24.2301 15.872C24.2301 17.232 23.7981 18.264 22.9341 18.968C22.0861 19.656 20.9661 20 19.5741 20H15.1101V5.432ZM17.5821 18.032H18.9501C20.8381 18.032 21.7821 17.232 21.7821 15.632C21.7821 14.192 20.7901 13.472 18.8061 13.472H17.5821V18.032ZM17.5821 11.696H18.6861C20.0621 11.696 20.7501 10.992 20.7501 9.584C20.7501 8.08 20.0701 7.328 18.7101 7.328H17.5821V11.696ZM25.1016 12.752C25.1016 10.624 25.7816 8.808 27.1416 7.304C28.5176 5.8 30.2456 5.048 32.3256 5.048C34.4056 5.048 36.1256 5.8 37.4856 7.304C38.8456 8.808 39.5256 10.616 39.5256 12.728C39.5256 14.84 38.8456 16.648 37.4856 18.152C36.1416 19.64 34.4216 20.384 32.3256 20.384C30.2296 20.384 28.5016 19.64 27.1416 18.152C25.7816 16.664 25.1016 14.864 25.1016 12.752ZM27.6696 12.584C27.6696 14.008 28.1176 15.264 29.0136 16.352C29.9096 17.424 31.0136 17.96 32.3256 17.96C33.7336 17.96 34.8616 17.448 35.7096 16.424C36.5576 15.384 36.9816 14.104 36.9816 12.584C36.9816 11.144 36.5576 9.936 35.7096 8.96C34.8616 7.968 33.7256 7.472 32.3016 7.472C30.8936 7.472 29.7656 7.968 28.9176 8.96C28.0856 9.952 27.6696 11.16 27.6696 12.584ZM40.8428 5.432H43.3148V13.592C43.3148 16.728 44.2988 18.296 46.2668 18.296C48.2348 18.296 49.2188 16.728 49.2188 13.592V5.432H51.6668V14.144C51.6668 18.304 49.8588 20.384 46.2428 20.384C42.6428 20.384 40.8428 18.304 40.8428 14.144V5.432ZM58.1048 20H55.8728V7.52H52.6328V5.432H61.3448V7.52H58.1048V20ZM81.3912 10.184L77.7432 20.192H77.1432L73.7112 10.136L72.0552 20H69.5832L72.0312 5.048H73.8552L77.6472 15.056L81.2712 5.048H83.1192L85.3032 20H82.8312L81.3912 10.184ZM89.0196 7.52V11.312H93.9156V13.4H89.0196V17.912H94.0836V20H86.5476V5.432H94.0836V7.52H89.0196Z" fill="black"/>
<path d="M3.184 64.096L2.428 66H0.902L4.206 57.278H5.494L8.714 66H7.174L6.46 64.096H3.184ZM4.766 59.364L3.534 62.962H6.068L4.766 59.364ZM15.3487 66H13.9067V57.502H16.1607C18.13 57.502 19.1147 58.3793 19.1147 60.134C19.1147 61.926 18.2094 62.822 16.3987 62.822H15.3487V66ZM15.3487 61.674H16.0627C17.1174 61.674 17.6447 61.1607 17.6447 60.134C17.6447 59.1447 17.1034 58.65 16.0207 58.65H15.3487V61.674ZM21.17 56.438V60.932C21.5246 60.5027 22.0893 60.288 22.864 60.288C23.4426 60.288 23.9046 60.512 24.25 60.96C24.5953 61.408 24.768 61.9633 24.768 62.626V66H23.424V63.074C23.424 61.9073 23.0646 61.324 22.346 61.324C21.562 61.324 21.17 61.968 21.17 63.256V66H19.812V56.438H21.17ZM25.9379 57.502H28.3179C29.5313 57.502 30.5159 57.9033 31.2719 58.706C32.0373 59.5087 32.4199 60.5213 32.4199 61.744C32.4199 62.9667 32.0326 63.984 31.2579 64.796C30.4926 65.5987 29.5079 66 28.3039 66H25.9379V57.502ZM27.3799 64.698H27.8699C29.9046 64.698 30.9219 63.718 30.9219 61.758C30.9219 59.7887 29.9046 58.804 27.8699 58.804H27.3799V64.698ZM40.7992 61.618C40.5005 61.338 40.1878 61.198 39.8612 61.198C39.3665 61.198 39.1192 61.422 39.1192 61.87C39.1192 62.122 39.3432 62.3273 39.7912 62.486C40.6125 62.7847 41.1212 63.06 41.3172 63.312C41.5132 63.5547 41.6112 63.858 41.6112 64.222C41.6112 64.8193 41.4012 65.2953 40.9812 65.65C40.5705 66.0047 40.0618 66.182 39.4552 66.182C38.6712 66.182 38.0225 65.874 37.5092 65.258L38.1112 64.488C38.5778 64.9547 39.0072 65.188 39.3992 65.188C39.9685 65.188 40.2532 64.9127 40.2532 64.362C40.2532 64.082 40.1038 63.8767 39.8052 63.746C39.5065 63.606 39.2778 63.5033 39.1192 63.438C38.2605 63.0647 37.8312 62.612 37.8312 62.08C37.8312 61.548 37.9898 61.1187 38.3072 60.792C38.6338 60.456 39.0585 60.288 39.5812 60.288C40.3278 60.288 40.9205 60.4793 41.3592 60.862L40.7992 61.618ZM44.1323 66H42.7743V61.688H42.1163V60.582H42.7743V58.594H44.1323V60.582H45.2103V61.688H44.1323V66ZM46.8861 60.47V63.466C46.8861 64.5393 47.2594 65.076 48.0061 65.076C48.7528 65.076 49.1261 64.5393 49.1261 63.466V60.47H50.4841V63.718C50.4841 65.3607 49.6581 66.182 48.0061 66.182C46.3541 66.182 45.5281 65.3607 45.5281 63.718V60.47H46.8861ZM55.4774 65.482C55.1134 65.9487 54.5394 66.182 53.7554 66.182C52.9714 66.182 52.3461 65.8833 51.8794 65.286C51.4221 64.6887 51.1934 63.9887 51.1934 63.186C51.1934 62.3833 51.4267 61.702 51.8934 61.142C52.3694 60.5727 52.9761 60.288 53.7134 60.288C54.4974 60.288 55.0761 60.5167 55.4494 60.974L55.4774 56.438H56.8354V66H55.4774V65.482ZM55.6314 63.228C55.6314 62.7427 55.4821 62.3273 55.1834 61.982C54.8847 61.6367 54.5254 61.464 54.1054 61.464C53.6854 61.464 53.3214 61.6367 53.0134 61.982C52.7147 62.318 52.5654 62.738 52.5654 63.242C52.5654 63.7367 52.7101 64.1567 52.9994 64.502C53.2981 64.838 53.6714 65.006 54.1194 65.006C54.5674 65.006 54.9314 64.8427 55.2114 64.516C55.4914 64.18 55.6314 63.7507 55.6314 63.228ZM59.0065 63.368C59.0065 63.9 59.1232 64.3387 59.3565 64.684C59.5898 65.0293 59.9118 65.202 60.3225 65.202C60.9665 65.202 61.3772 64.8847 61.5545 64.25L62.8425 64.46C62.4225 65.608 61.5825 66.182 60.3225 66.182C59.4825 66.182 58.8105 65.916 58.3065 65.384C57.8118 64.8427 57.5645 64.1427 57.5645 63.284C57.5645 62.3787 57.8025 61.6553 58.2785 61.114C58.7638 60.5633 59.4172 60.288 60.2385 60.288C61.0692 60.288 61.7132 60.5493 62.1705 61.072C62.6372 61.5853 62.8705 62.29 62.8705 63.186V63.368H59.0065ZM61.6105 62.612C61.6105 62.2293 61.4892 61.8933 61.2465 61.604C61.0132 61.3147 60.7052 61.17 60.3225 61.17C59.9492 61.17 59.6412 61.324 59.3985 61.632C59.1652 61.9307 59.0485 62.2573 59.0485 62.612H61.6105ZM64.961 60.974C65.3436 60.5167 65.9083 60.288 66.655 60.288C67.9243 60.288 68.559 61.0673 68.559 62.626V66H67.215V63.074C67.215 61.9073 66.8556 61.324 66.137 61.324C65.353 61.324 64.961 61.9493 64.961 63.2V66H63.603V60.47H64.961V60.974ZM71.353 66H69.995V61.688H69.337V60.582H69.995V58.594H71.353V60.582H72.431V61.688H71.353V66ZM82.6886 66H81.3586V65.496C80.9666 65.9533 80.3832 66.182 79.6086 66.182C78.8339 66.182 78.2132 65.8833 77.7466 65.286C77.2892 64.6887 77.0606 63.9887 77.0606 63.186C77.0606 62.3833 77.2939 61.702 77.7606 61.142C78.2366 60.5727 78.8432 60.288 79.5806 60.288C80.3646 60.288 80.9572 60.5213 81.3586 60.988V60.47H82.6886V66ZM81.5126 63.228C81.5126 62.7147 81.3679 62.2947 81.0786 61.968C80.7892 61.632 80.4159 61.464 79.9586 61.464C79.5106 61.464 79.1419 61.6273 78.8526 61.954C78.5726 62.2713 78.4326 62.696 78.4326 63.228C78.4326 63.76 78.5772 64.1893 78.8666 64.516C79.1559 64.8427 79.5292 65.006 79.9866 65.006C80.4439 65.006 80.8126 64.8473 81.0926 64.53C81.3726 64.2127 81.5126 63.7787 81.5126 63.228ZM85.4897 66H84.1317V61.688H83.4737V60.582H84.1317V58.594H85.4897V60.582H86.5677V61.688H85.4897V66ZM93.2553 66H91.8973V61.688H91.2393V60.582H91.8973V58.594H93.2553V60.582H94.3333V61.688H93.2553V66ZM96.0371 56.438V60.932C96.3918 60.5027 96.9565 60.288 97.7311 60.288C98.3098 60.288 98.7718 60.512 99.1171 60.96C99.4625 61.408 99.6351 61.9633 99.6351 62.626V66H98.2911V63.074C98.2911 61.9073 97.9318 61.324 97.2131 61.324C96.4291 61.324 96.0371 61.968 96.0371 63.256V66H94.6791V56.438H96.0371ZM101.813 63.368C101.813 63.9 101.93 64.3387 102.163 64.684C102.396 65.0293 102.718 65.202 103.129 65.202C103.773 65.202 104.184 64.8847 104.361 64.25L105.649 64.46C105.229 65.608 104.389 66.182 103.129 66.182C102.289 66.182 101.617 65.916 101.113 65.384C100.618 64.8427 100.371 64.1427 100.371 63.284C100.371 62.3787 100.609 61.6553 101.085 61.114C101.57 60.5633 102.224 60.288 103.045 60.288C103.876 60.288 104.52 60.5493 104.977 61.072C105.444 61.5853 105.677 62.29 105.677 63.186V63.368H101.813ZM104.417 62.612C104.417 62.2293 104.296 61.8933 104.053 61.604C103.82 61.3147 103.512 61.17 103.129 61.17C102.756 61.17 102.448 61.324 102.205 61.632C101.972 61.9307 101.855 62.2573 101.855 62.612H104.417ZM118.645 61.478V61.688C118.645 63.0413 118.3 64.138 117.609 64.978C116.919 65.8087 115.971 66.224 114.767 66.224C113.601 66.224 112.635 65.7947 111.869 64.936C111.104 64.0773 110.721 63.0273 110.721 61.786C110.721 60.498 111.109 59.4247 111.883 58.566C112.667 57.7073 113.666 57.278 114.879 57.278C116.447 57.278 117.567 57.9547 118.239 59.308L116.951 59.994C116.522 59.014 115.817 58.524 114.837 58.524C114.081 58.524 113.456 58.8507 112.961 59.504C112.467 60.148 112.219 60.9133 112.219 61.8C112.219 62.6867 112.462 63.438 112.947 64.054C113.433 64.67 114.063 64.978 114.837 64.978C115.5 64.978 116.027 64.7447 116.419 64.278C116.811 63.8113 117.007 63.256 117.007 62.612H114.977V61.478H118.645ZM120.462 63.368C120.462 63.9 120.578 64.3387 120.812 64.684C121.045 65.0293 121.367 65.202 121.778 65.202C122.422 65.202 122.832 64.8847 123.01 64.25L124.298 64.46C123.878 65.608 123.038 66.182 121.778 66.182C120.938 66.182 120.266 65.916 119.762 65.384C119.267 64.8427 119.02 64.1427 119.02 63.284C119.02 62.3787 119.258 61.6553 119.734 61.114C120.219 60.5633 120.872 60.288 121.694 60.288C122.524 60.288 123.168 60.5493 123.626 61.072C124.092 61.5853 124.326 62.29 124.326 63.186V63.368H120.462ZM123.066 62.612C123.066 62.2293 122.944 61.8933 122.702 61.604C122.468 61.3147 122.16 61.17 121.778 61.17C121.404 61.17 121.096 61.324 120.854 61.632C120.62 61.9307 120.504 62.2573 120.504 62.612H123.066ZM130.49 63.228C130.49 64.096 130.224 64.8053 129.692 65.356C129.16 65.9067 128.46 66.182 127.592 66.182C126.733 66.182 126.033 65.9067 125.492 65.356C124.951 64.8053 124.68 64.1007 124.68 63.242C124.68 62.374 124.946 61.6647 125.478 61.114C126.01 60.5633 126.71 60.288 127.578 60.288C128.446 60.288 129.146 60.5633 129.678 61.114C130.219 61.6553 130.49 62.36 130.49 63.228ZM126.052 63.256C126.052 63.7693 126.197 64.1893 126.486 64.516C126.775 64.8427 127.149 65.006 127.606 65.006C128.063 65.006 128.427 64.8333 128.698 64.488C128.978 64.1333 129.118 63.718 129.118 63.242C129.118 62.7567 128.978 62.3413 128.698 61.996C128.418 61.6413 128.049 61.464 127.592 61.464C127.144 61.464 126.775 61.632 126.486 61.968C126.197 62.304 126.052 62.7333 126.052 63.256ZM132.596 61.044C132.941 60.54 133.482 60.288 134.22 60.288C134.453 60.288 134.668 60.3347 134.864 60.428L134.696 61.66C134.49 61.5293 134.266 61.464 134.024 61.464C133.072 61.464 132.596 62.1453 132.596 63.508V66H131.238V60.47H132.596V61.044ZM140.631 65.524C140.631 67.4187 139.749 68.366 137.985 68.366C137.201 68.366 136.538 68.1513 135.997 67.722C135.455 67.302 135.185 66.7513 135.185 66.07H136.627C136.627 66.3407 136.762 66.6067 137.033 66.868C137.303 67.1293 137.607 67.26 137.943 67.26C138.829 67.26 139.273 66.728 139.273 65.664V65.314C138.89 65.7993 138.307 66.042 137.523 66.042C136.748 66.042 136.137 65.7713 135.689 65.23C135.25 64.6887 135.031 64.026 135.031 63.242C135.031 62.3927 135.269 61.6833 135.745 61.114C136.221 60.5447 136.837 60.26 137.593 60.26C138.358 60.26 138.918 60.498 139.273 60.974V60.442H140.631V65.524ZM139.469 63.116C139.469 62.612 139.329 62.206 139.049 61.898C138.769 61.59 138.4 61.436 137.943 61.436C137.485 61.436 137.112 61.604 136.823 61.94C136.543 62.276 136.403 62.7007 136.403 63.214C136.403 64.3153 136.916 64.866 137.943 64.866C138.409 64.866 138.778 64.7027 139.049 64.376C139.329 64.04 139.469 63.62 139.469 63.116ZM143.363 58.146C143.363 58.3607 143.283 58.5473 143.125 58.706C142.966 58.8647 142.779 58.944 142.565 58.944C142.35 58.944 142.163 58.8647 142.005 58.706C141.846 58.5473 141.767 58.3607 141.767 58.146C141.767 57.9313 141.846 57.7447 142.005 57.586C142.163 57.4273 142.35 57.348 142.565 57.348C142.779 57.348 142.966 57.4273 143.125 57.586C143.283 57.7447 143.363 57.9313 143.363 58.146ZM143.251 66H141.893V60.47H143.251V66ZM149.79 66H148.46V65.496C148.068 65.9533 147.485 66.182 146.71 66.182C145.935 66.182 145.315 65.8833 144.848 65.286C144.391 64.6887 144.162 63.9887 144.162 63.186C144.162 62.3833 144.395 61.702 144.862 61.142C145.338 60.5727 145.945 60.288 146.682 60.288C147.466 60.288 148.059 60.5213 148.46 60.988V60.47H149.79V66ZM148.614 63.228C148.614 62.7147 148.469 62.2947 148.18 61.968C147.891 61.632 147.517 61.464 147.06 61.464C146.612 61.464 146.243 61.6273 145.954 61.954C145.674 62.2713 145.534 62.696 145.534 63.228C145.534 63.76 145.679 64.1893 145.968 64.516C146.257 64.8427 146.631 65.006 147.088 65.006C147.545 65.006 147.914 64.8473 148.194 64.53C148.474 64.2127 148.614 63.7787 148.614 63.228ZM157.197 66H155.755V57.502H157.197V66ZM159.816 60.974C160.199 60.5167 160.764 60.288 161.51 60.288C162.78 60.288 163.414 61.0673 163.414 62.626V66H162.07V63.074C162.07 61.9073 161.711 61.324 160.992 61.324C160.208 61.324 159.816 61.9493 159.816 63.2V66H158.458V60.47H159.816V60.974ZM167.496 61.618C167.198 61.338 166.885 61.198 166.558 61.198C166.064 61.198 165.816 61.422 165.816 61.87C165.816 62.122 166.04 62.3273 166.488 62.486C167.31 62.7847 167.818 63.06 168.014 63.312C168.21 63.5547 168.308 63.858 168.308 64.222C168.308 64.8193 168.098 65.2953 167.678 65.65C167.268 66.0047 166.759 66.182 166.152 66.182C165.368 66.182 164.72 65.874 164.206 65.258L164.808 64.488C165.275 64.9547 165.704 65.188 166.096 65.188C166.666 65.188 166.95 64.9127 166.95 64.362C166.95 64.082 166.801 63.8767 166.502 63.746C166.204 63.606 165.975 63.5033 165.816 63.438C164.958 63.0647 164.528 62.612 164.528 62.08C164.528 61.548 164.687 61.1187 165.004 60.792C165.331 60.456 165.756 60.288 166.278 60.288C167.025 60.288 167.618 60.4793 168.056 60.862L167.496 61.618ZM170.83 66H169.472V61.688H168.814V60.582H169.472V58.594H170.83V60.582H171.908V61.688H170.83V66ZM173.919 58.146C173.919 58.3607 173.84 58.5473 173.681 58.706C173.523 58.8647 173.336 58.944 173.121 58.944C172.907 58.944 172.72 58.8647 172.561 58.706C172.403 58.5473 172.323 58.3607 172.323 58.146C172.323 57.9313 172.403 57.7447 172.561 57.586C172.72 57.4273 172.907 57.348 173.121 57.348C173.336 57.348 173.523 57.4273 173.681 57.586C173.84 57.7447 173.919 57.9313 173.919 58.146ZM173.807 66H172.449V60.47H173.807V66ZM176.777 66H175.419V61.688H174.761V60.582H175.419V58.594H176.777V60.582H177.855V61.688H176.777V66ZM179.531 60.47V63.466C179.531 64.5393 179.904 65.076 180.651 65.076C181.397 65.076 181.771 64.5393 181.771 63.466V60.47H183.129V63.718C183.129 65.3607 182.303 66.182 180.651 66.182C178.999 66.182 178.173 65.3607 178.173 63.718V60.47H179.531ZM185.896 66H184.538V61.688H183.88V60.582H184.538V58.594H185.896V60.582H186.974V61.688H185.896V66ZM188.37 63.368C188.37 63.9 188.486 64.3387 188.72 64.684C188.953 65.0293 189.275 65.202 189.686 65.202C190.33 65.202 190.74 64.8847 190.918 64.25L192.206 64.46C191.786 65.608 190.946 66.182 189.686 66.182C188.846 66.182 188.174 65.916 187.67 65.384C187.175 64.8427 186.928 64.1427 186.928 63.284C186.928 62.3787 187.166 61.6553 187.642 61.114C188.127 60.5633 188.78 60.288 189.602 60.288C190.432 60.288 191.076 60.5493 191.534 61.072C192 61.5853 192.234 62.29 192.234 63.186V63.368H188.37ZM190.974 62.612C190.974 62.2293 190.852 61.8933 190.61 61.604C190.376 61.3147 190.068 61.17 189.686 61.17C189.312 61.17 189.004 61.324 188.762 61.632C188.528 61.9307 188.412 62.2573 188.412 62.612H190.974ZM203.074 63.228C203.074 64.096 202.808 64.8053 202.276 65.356C201.744 65.9067 201.044 66.182 200.176 66.182C199.317 66.182 198.617 65.9067 198.076 65.356C197.535 64.8053 197.264 64.1007 197.264 63.242C197.264 62.374 197.53 61.6647 198.062 61.114C198.594 60.5633 199.294 60.288 200.162 60.288C201.03 60.288 201.73 60.5633 202.262 61.114C202.803 61.6553 203.074 62.36 203.074 63.228ZM198.636 63.256C198.636 63.7693 198.781 64.1893 199.07 64.516C199.359 64.8427 199.733 65.006 200.19 65.006C200.647 65.006 201.011 64.8333 201.282 64.488C201.562 64.1333 201.702 63.718 201.702 63.242C201.702 62.7567 201.562 62.3413 201.282 61.996C201.002 61.6413 200.633 61.464 200.176 61.464C199.728 61.464 199.359 61.632 199.07 61.968C198.781 62.304 198.636 62.7333 198.636 63.256ZM205.348 66H203.99V61.688H203.346V60.582H203.99V58.846C203.99 57.1567 204.648 56.312 205.964 56.312C206.234 56.312 206.486 56.3727 206.72 56.494V57.67C206.477 57.5487 206.262 57.488 206.076 57.488C205.824 57.488 205.637 57.5813 205.516 57.768C205.404 57.9453 205.348 58.3793 205.348 59.07V60.582H206.72V61.688H205.348V66ZM214.547 66H213.245V58.72H211.355V57.502H216.437V58.72H214.547V66ZM218.051 63.368C218.051 63.9 218.168 64.3387 218.401 64.684C218.635 65.0293 218.957 65.202 219.367 65.202C220.011 65.202 220.422 64.8847 220.599 64.25L221.887 64.46C221.467 65.608 220.627 66.182 219.367 66.182C218.527 66.182 217.855 65.916 217.351 65.384C216.857 64.8427 216.609 64.1427 216.609 63.284C216.609 62.3787 216.847 61.6553 217.323 61.114C217.809 60.5633 218.462 60.288 219.283 60.288C220.114 60.288 220.758 60.5493 221.215 61.072C221.682 61.5853 221.915 62.29 221.915 63.186V63.368H218.051ZM220.655 62.612C220.655 62.2293 220.534 61.8933 220.291 61.604C220.058 61.3147 219.75 61.17 219.367 61.17C218.994 61.17 218.686 61.324 218.443 61.632C218.21 61.9307 218.093 62.2573 218.093 62.612H220.655ZM226.414 61.912C226.069 61.5667 225.681 61.394 225.252 61.394C224.748 61.394 224.351 61.576 224.062 61.94C223.773 62.304 223.628 62.752 223.628 63.284C223.628 63.8067 223.791 64.236 224.118 64.572C224.445 64.908 224.841 65.076 225.308 65.076C225.709 65.076 226.078 64.8987 226.414 64.544V65.846C226.022 66.07 225.569 66.182 225.056 66.182C224.253 66.182 223.586 65.8973 223.054 65.328C222.522 64.7587 222.256 64.0633 222.256 63.242C222.256 62.4207 222.527 61.7253 223.068 61.156C223.619 60.5773 224.305 60.288 225.126 60.288C225.611 60.288 226.041 60.4047 226.414 60.638V61.912ZM228.75 56.438V60.932C229.105 60.5027 229.669 60.288 230.444 60.288C231.023 60.288 231.485 60.512 231.83 60.96C232.175 61.408 232.348 61.9633 232.348 62.626V66H231.004V63.074C231.004 61.9073 230.645 61.324 229.926 61.324C229.142 61.324 228.75 61.968 228.75 63.256V66H227.392V56.438H228.75ZM234.834 60.974C235.217 60.5167 235.781 60.288 236.528 60.288C237.797 60.288 238.432 61.0673 238.432 62.626V66H237.088V63.074C237.088 61.9073 236.729 61.324 236.01 61.324C235.226 61.324 234.834 61.9493 234.834 63.2V66H233.476V60.47H234.834V60.974ZM244.992 63.228C244.992 64.096 244.726 64.8053 244.194 65.356C243.662 65.9067 242.962 66.182 242.094 66.182C241.235 66.182 240.535 65.9067 239.994 65.356C239.453 64.8053 239.182 64.1007 239.182 63.242C239.182 62.374 239.448 61.6647 239.98 61.114C240.512 60.5633 241.212 60.288 242.08 60.288C242.948 60.288 243.648 60.5633 244.18 61.114C244.721 61.6553 244.992 62.36 244.992 63.228ZM240.554 63.256C240.554 63.7693 240.699 64.1893 240.988 64.516C241.277 64.8427 241.651 65.006 242.108 65.006C242.565 65.006 242.929 64.8333 243.2 64.488C243.48 64.1333 243.62 63.718 243.62 63.242C243.62 62.7567 243.48 62.3413 243.2 61.996C242.92 61.6413 242.551 61.464 242.094 61.464C241.646 61.464 241.277 61.632 240.988 61.968C240.699 62.304 240.554 62.7333 240.554 63.256ZM247.21 66H245.852V56.438H247.21V66ZM253.865 63.228C253.865 64.096 253.599 64.8053 253.067 65.356C252.535 65.9067 251.835 66.182 250.967 66.182C250.108 66.182 249.408 65.9067 248.867 65.356C248.326 64.8053 248.055 64.1007 248.055 63.242C248.055 62.374 248.321 61.6647 248.853 61.114C249.385 60.5633 250.085 60.288 250.953 60.288C251.821 60.288 252.521 60.5633 253.053 61.114C253.594 61.6553 253.865 62.36 253.865 63.228ZM249.427 63.256C249.427 63.7693 249.572 64.1893 249.861 64.516C250.15 64.8427 250.524 65.006 250.981 65.006C251.438 65.006 251.802 64.8333 252.073 64.488C252.353 64.1333 252.493 63.718 252.493 63.242C252.493 62.7567 252.353 62.3413 252.073 61.996C251.793 61.6413 251.424 61.464 250.967 61.464C250.519 61.464 250.15 61.632 249.861 61.968C249.572 62.304 249.427 62.7333 249.427 63.256ZM259.877 65.524C259.877 67.4187 258.995 68.366 257.231 68.366C256.447 68.366 255.784 68.1513 255.243 67.722C254.701 67.302 254.431 66.7513 254.431 66.07H255.873C255.873 66.3407 256.008 66.6067 256.279 66.868C256.549 67.1293 256.853 67.26 257.189 67.26C258.075 67.26 258.519 66.728 258.519 65.664V65.314C258.136 65.7993 257.553 66.042 256.769 66.042C255.994 66.042 255.383 65.7713 254.935 65.23C254.496 64.6887 254.277 64.026 254.277 63.242C254.277 62.3927 254.515 61.6833 254.991 61.114C255.467 60.5447 256.083 60.26 256.839 60.26C257.604 60.26 258.164 60.498 258.519 60.974V60.442H259.877V65.524ZM258.715 63.116C258.715 62.612 258.575 62.206 258.295 61.898C258.015 61.59 257.646 61.436 257.189 61.436C256.731 61.436 256.358 61.604 256.069 61.94C255.789 62.276 255.649 62.7007 255.649 63.214C255.649 64.3153 256.162 64.866 257.189 64.866C257.655 64.866 258.024 64.7027 258.295 64.376C258.575 64.04 258.715 63.62 258.715 63.116ZM260.299 60.47H261.867L263.309 63.788L264.821 60.47H266.361L262.441 68.31H260.929L262.637 65.146L260.299 60.47ZM268.88 65.202C268.88 65.482 268.782 65.7247 268.586 65.93C268.399 66.126 268.166 66.224 267.886 66.224C267.606 66.224 267.368 66.126 267.172 65.93C266.976 65.734 266.878 65.5007 266.878 65.23C266.878 64.95 266.976 64.712 267.172 64.516C267.368 64.32 267.601 64.222 267.872 64.222C268.152 64.222 268.39 64.3153 268.586 64.502C268.782 64.6887 268.88 64.922 268.88 65.202ZM276.347 66H274.905V57.502H276.347V66ZM287.521 66H286.191V65.496C285.799 65.9533 285.215 66.182 284.441 66.182C283.666 66.182 283.045 65.8833 282.579 65.286C282.121 64.6887 281.893 63.9887 281.893 63.186C281.893 62.3833 282.126 61.702 282.593 61.142C283.069 60.5727 283.675 60.288 284.413 60.288C285.197 60.288 285.789 60.5213 286.191 60.988V60.47H287.521V66ZM286.345 63.228C286.345 62.7147 286.2 62.2947 285.911 61.968C285.621 61.632 285.248 61.464 284.791 61.464C284.343 61.464 283.974 61.6273 283.685 61.954C283.405 62.2713 283.265 62.696 283.265 63.228C283.265 63.76 283.409 64.1893 283.699 64.516C283.988 64.8427 284.361 65.006 284.819 65.006C285.276 65.006 285.645 64.8473 285.925 64.53C286.205 64.2127 286.345 63.7787 286.345 63.228ZM290.014 60.96C290.359 60.512 290.891 60.288 291.61 60.288C292.235 60.288 292.73 60.5773 293.094 61.156C293.448 60.5773 294.022 60.288 294.816 60.288C295.982 60.288 296.566 61.044 296.566 62.556V66H295.222V63.088C295.222 61.912 294.9 61.324 294.256 61.324C293.612 61.324 293.29 61.9773 293.29 63.284V66H291.932V63.2C291.932 61.9493 291.647 61.324 291.078 61.324C290.368 61.324 290.014 61.9773 290.014 63.284V66H288.656V60.47H290.014V60.96ZM3.66 78.082L5.13 74.288H5.62L7.16 78.068L8.532 74.47H10.03L7.454 80.112H6.768L5.494 76.57L4.038 80.112H3.338L0.804 74.47H2.302L3.66 78.082ZM15.8104 77.228C15.8104 78.096 15.5444 78.8053 15.0124 79.356C14.4804 79.9067 13.7804 80.182 12.9124 80.182C12.0537 80.182 11.3537 79.9067 10.8124 79.356C10.271 78.8053 10.0004 78.1007 10.0004 77.242C10.0004 76.374 10.2664 75.6647 10.7984 75.114C11.3304 74.5633 12.0304 74.288 12.8984 74.288C13.7664 74.288 14.4664 74.5633 14.9984 75.114C15.5397 75.6553 15.8104 76.36 15.8104 77.228ZM11.3724 77.256C11.3724 77.7693 11.517 78.1893 11.8064 78.516C12.0957 78.8427 12.469 79.006 12.9264 79.006C13.3837 79.006 13.7477 78.8333 14.0184 78.488C14.2984 78.1333 14.4384 77.718 14.4384 77.242C14.4384 76.7567 14.2984 76.3413 14.0184 75.996C13.7384 75.6413 13.3697 75.464 12.9124 75.464C12.4644 75.464 12.0957 75.632 11.8064 75.968C11.517 76.304 11.3724 76.7333 11.3724 77.256ZM17.916 75.044C18.2614 74.54 18.8027 74.288 19.54 74.288C19.7734 74.288 19.988 74.3347 20.184 74.428L20.016 75.66C19.8107 75.5293 19.5867 75.464 19.344 75.464C18.392 75.464 17.916 76.1453 17.916 77.508V80H16.558V74.47H17.916V75.044ZM22.129 76.794L24.061 74.47H25.881L23.557 76.906L26.063 80H24.215L22.157 77.312L22.129 80H20.771V70.438H22.129V76.794ZM28.2729 72.146C28.2729 72.3607 28.1935 72.5473 28.0349 72.706C27.8762 72.8647 27.6895 72.944 27.4749 72.944C27.2602 72.944 27.0735 72.8647 26.9149 72.706C26.7562 72.5473 26.6769 72.3607 26.6769 72.146C26.6769 71.9313 26.7562 71.7447 26.9149 71.586C27.0735 71.4273 27.2602 71.348 27.4749 71.348C27.6895 71.348 27.8762 71.4273 28.0349 71.586C28.1935 71.7447 28.2729 71.9313 28.2729 72.146ZM28.1609 80H26.8029V74.47H28.1609V80ZM30.8223 74.974C31.205 74.5167 31.7696 74.288 32.5163 74.288C33.7856 74.288 34.4203 75.0673 34.4203 76.626V80H33.0763V77.074C33.0763 75.9073 32.717 75.324 31.9983 75.324C31.2143 75.324 30.8223 75.9493 30.8223 77.2V80H29.4643V74.47H30.8223V74.974ZM40.8123 79.524C40.8123 81.4187 39.9303 82.366 38.1663 82.366C37.3823 82.366 36.7196 82.1513 36.1783 81.722C35.6369 81.302 35.3663 80.7513 35.3663 80.07H36.8083C36.8083 80.3407 36.9436 80.6067 37.2143 80.868C37.4849 81.1293 37.7883 81.26 38.1243 81.26C39.0109 81.26 39.4543 80.728 39.4543 79.664V79.314C39.0716 79.7993 38.4883 80.042 37.7043 80.042C36.9296 80.042 36.3183 79.7713 35.8703 79.23C35.4316 78.6887 35.2123 78.026 35.2123 77.242C35.2123 76.3927 35.4503 75.6833 35.9263 75.114C36.4023 74.5447 37.0183 74.26 37.7743 74.26C38.5396 74.26 39.0996 74.498 39.4543 74.974V74.442H40.8123V79.524ZM39.6503 77.116C39.6503 76.612 39.5103 76.206 39.2303 75.898C38.9503 75.59 38.5816 75.436 38.1243 75.436C37.6669 75.436 37.2936 75.604 37.0043 75.94C36.7243 76.276 36.5843 76.7007 36.5843 77.214C36.5843 78.3153 37.0976 78.866 38.1243 78.866C38.5909 78.866 38.9596 78.7027 39.2303 78.376C39.5103 78.04 39.6503 77.62 39.6503 77.116ZM48.2201 72.146C48.2201 72.3607 48.1408 72.5473 47.9821 72.706C47.8235 72.8647 47.6368 72.944 47.4221 72.944C47.2075 72.944 47.0208 72.8647 46.8621 72.706C46.7035 72.5473 46.6241 72.3607 46.6241 72.146C46.6241 71.9313 46.7035 71.7447 46.8621 71.586C47.0208 71.4273 47.2075 71.348 47.4221 71.348C47.6368 71.348 47.8235 71.4273 47.9821 71.586C48.1408 71.7447 48.2201 71.9313 48.2201 72.146ZM48.1081 80H46.7501V74.47H48.1081V80ZM50.7696 74.974C51.1522 74.5167 51.7169 74.288 52.4636 74.288C53.7329 74.288 54.3676 75.0673 54.3676 76.626V80H53.0236V77.074C53.0236 75.9073 52.6642 75.324 51.9456 75.324C51.1616 75.324 50.7696 75.9493 50.7696 77.2V80H49.4116V74.47H50.7696V74.974ZM61.8373 80H60.4793V75.688H59.8213V74.582H60.4793V72.594H61.8373V74.582H62.9153V75.688H61.8373V80ZM64.6192 70.438V74.932C64.9738 74.5027 65.5385 74.288 66.3132 74.288C66.8918 74.288 67.3538 74.512 67.6992 74.96C68.0445 75.408 68.2172 75.9633 68.2172 76.626V80H66.8732V77.074C66.8732 75.9073 66.5138 75.324 65.7952 75.324C65.0112 75.324 64.6192 75.968 64.6192 77.256V80H63.2612V70.438H64.6192ZM70.3952 77.368C70.3952 77.9 70.5118 78.3387 70.7452 78.684C70.9785 79.0293 71.3005 79.202 71.7112 79.202C72.3552 79.202 72.7658 78.8847 72.9432 78.25L74.2312 78.46C73.8112 79.608 72.9712 80.182 71.7112 80.182C70.8712 80.182 70.1992 79.916 69.6952 79.384C69.2005 78.8427 68.9532 78.1427 68.9532 77.284C68.9532 76.3787 69.1912 75.6553 69.6672 75.114C70.1525 74.5633 70.8058 74.288 71.6272 74.288C72.4578 74.288 73.1018 74.5493 73.5592 75.072C74.0258 75.5853 74.2592 76.29 74.2592 77.186V77.368H70.3952ZM72.9992 76.612C72.9992 76.2293 72.8778 75.8933 72.6352 75.604C72.4018 75.3147 72.0938 75.17 71.7112 75.17C71.3378 75.17 71.0298 75.324 70.7872 75.632C70.5538 75.9307 70.4372 76.2573 70.4372 76.612H72.9992ZM81.1934 80H79.8354V75.688H79.1914V74.582H79.8354V72.846C79.8354 71.1567 80.4934 70.312 81.8094 70.312C82.0801 70.312 82.3321 70.3727 82.5654 70.494V71.67C82.3228 71.5487 82.1081 71.488 81.9214 71.488C81.6694 71.488 81.4828 71.5813 81.3614 71.768C81.2494 71.9453 81.1934 72.3793 81.1934 73.07V74.582H82.5654V75.688H81.1934V80ZM84.7514 72.146C84.7514 72.3607 84.6721 72.5473 84.5134 72.706C84.3547 72.8647 84.1681 72.944 83.9534 72.944C83.7387 72.944 83.5521 72.8647 83.3934 72.706C83.2347 72.5473 83.1554 72.3607 83.1554 72.146C83.1554 71.9313 83.2347 71.7447 83.3934 71.586C83.5521 71.4273 83.7387 71.348 83.9534 71.348C84.1681 71.348 84.3547 71.4273 84.5134 71.586C84.6721 71.7447 84.7514 71.9313 84.7514 72.146ZM84.6394 80H83.2814V74.47H84.6394V80ZM86.9928 77.368C86.9928 77.9 87.1095 78.3387 87.3428 78.684C87.5761 79.0293 87.8981 79.202 88.3088 79.202C88.9528 79.202 89.3635 78.8847 89.5408 78.25L90.8288 78.46C90.4088 79.608 89.5688 80.182 88.3088 80.182C87.4688 80.182 86.7968 79.916 86.2928 79.384C85.7981 78.8427 85.5508 78.1427 85.5508 77.284C85.5508 76.3787 85.7888 75.6553 86.2648 75.114C86.7501 74.5633 87.4035 74.288 88.2248 74.288C89.0555 74.288 89.6995 74.5493 90.1568 75.072C90.6235 75.5853 90.8568 76.29 90.8568 77.186V77.368H86.9928ZM89.5968 76.612C89.5968 76.2293 89.4755 75.8933 89.2328 75.604C88.9995 75.3147 88.6915 75.17 88.3088 75.17C87.9355 75.17 87.6275 75.324 87.3848 75.632C87.1515 75.9307 87.0348 76.2573 87.0348 76.612H89.5968ZM93.0593 80H91.7013V70.438H93.0593V80ZM98.1747 79.482C97.8107 79.9487 97.2367 80.182 96.4527 80.182C95.6687 80.182 95.0433 79.8833 94.5767 79.286C94.1193 78.6887 93.8907 77.9887 93.8907 77.186C93.8907 76.3833 94.124 75.702 94.5907 75.142C95.0667 74.5727 95.6733 74.288 96.4107 74.288C97.1947 74.288 97.7733 74.5167 98.1467 74.974L98.1747 70.438H99.5327V80H98.1747V79.482ZM98.3287 77.228C98.3287 76.7427 98.1793 76.3273 97.8807 75.982C97.582 75.6367 97.2227 75.464 96.8027 75.464C96.3827 75.464 96.0187 75.6367 95.7107 75.982C95.412 76.318 95.2627 76.738 95.2627 77.242C95.2627 77.7367 95.4073 78.1567 95.6967 78.502C95.9953 78.838 96.3687 79.006 96.8167 79.006C97.2647 79.006 97.6287 78.8427 97.9087 78.516C98.1887 78.18 98.3287 77.7507 98.3287 77.228ZM110.762 77.228C110.762 78.096 110.496 78.8053 109.964 79.356C109.432 79.9067 108.732 80.182 107.864 80.182C107.005 80.182 106.305 79.9067 105.764 79.356C105.222 78.8053 104.952 78.1007 104.952 77.242C104.952 76.374 105.218 75.6647 105.75 75.114C106.282 74.5633 106.982 74.288 107.85 74.288C108.718 74.288 109.418 74.5633 109.95 75.114C110.491 75.6553 110.762 76.36 110.762 77.228ZM106.324 77.256C106.324 77.7693 106.468 78.1893 106.758 78.516C107.047 78.8427 107.42 79.006 107.878 79.006C108.335 79.006 108.699 78.8333 108.97 78.488C109.25 78.1333 109.39 77.718 109.39 77.242C109.39 76.7567 109.25 76.3413 108.97 75.996C108.69 75.6413 108.321 75.464 107.864 75.464C107.416 75.464 107.047 75.632 106.758 75.968C106.468 76.304 106.324 76.7333 106.324 77.256ZM113.035 80H111.677V75.688H111.033V74.582H111.677V72.846C111.677 71.1567 112.335 70.312 113.651 70.312C113.922 70.312 114.174 70.3727 114.407 70.494V71.67C114.165 71.5487 113.95 71.488 113.763 71.488C113.511 71.488 113.325 71.5813 113.203 71.768C113.091 71.9453 113.035 72.3793 113.035 73.07V74.582H114.407V75.688H113.035V80ZM120.961 70.438V74.932C121.316 74.5027 121.88 74.288 122.655 74.288C123.234 74.288 123.696 74.512 124.041 74.96C124.386 75.408 124.559 75.9633 124.559 76.626V80H123.215V77.074C123.215 75.9073 122.856 75.324 122.137 75.324C121.353 75.324 120.961 75.968 120.961 77.256V80H119.603V70.438H120.961ZM126.737 77.368C126.737 77.9 126.854 78.3387 127.087 78.684C127.32 79.0293 127.642 79.202 128.053 79.202C128.697 79.202 129.108 78.8847 129.285 78.25L130.573 78.46C130.153 79.608 129.313 80.182 128.053 80.182C127.213 80.182 126.541 79.916 126.037 79.384C125.542 78.8427 125.295 78.1427 125.295 77.284C125.295 76.3787 125.533 75.6553 126.009 75.114C126.494 74.5633 127.148 74.288 127.969 74.288C128.8 74.288 129.444 74.5493 129.901 75.072C130.368 75.5853 130.601 76.29 130.601 77.186V77.368H126.737ZM129.341 76.612C129.341 76.2293 129.22 75.8933 128.977 75.604C128.744 75.3147 128.436 75.17 128.053 75.17C127.68 75.17 127.372 75.324 127.129 75.632C126.896 75.9307 126.779 76.2573 126.779 76.612H129.341ZM136.569 80H135.239V79.496C134.847 79.9533 134.264 80.182 133.489 80.182C132.715 80.182 132.094 79.8833 131.627 79.286C131.17 78.6887 130.941 77.9887 130.941 77.186C130.941 76.3833 131.175 75.702 131.641 75.142C132.117 74.5727 132.724 74.288 133.461 74.288C134.245 74.288 134.838 74.5213 135.239 74.988V74.47H136.569V80ZM135.393 77.228C135.393 76.7147 135.249 76.2947 134.959 75.968C134.67 75.632 134.297 75.464 133.839 75.464C133.391 75.464 133.023 75.6273 132.733 75.954C132.453 76.2713 132.313 76.696 132.313 77.228C132.313 77.76 132.458 78.1893 132.747 78.516C133.037 78.8427 133.41 79.006 133.867 79.006C134.325 79.006 134.693 78.8473 134.973 78.53C135.253 78.2127 135.393 77.7787 135.393 77.228ZM139.175 80H137.817V70.438H139.175V80ZM142.064 80H140.706V75.688H140.048V74.582H140.706V72.594H142.064V74.582H143.142V75.688H142.064V80ZM144.846 70.438V74.932C145.2 74.5027 145.765 74.288 146.54 74.288C147.118 74.288 147.58 74.512 147.926 74.96C148.271 75.408 148.444 75.9633 148.444 76.626V80H147.1V77.074C147.1 75.9073 146.74 75.324 146.022 75.324C145.238 75.324 144.846 75.968 144.846 77.256V80H143.488V70.438H144.846ZM155.914 72.146C155.914 72.3607 155.834 72.5473 155.676 72.706C155.517 72.8647 155.33 72.944 155.116 72.944C154.901 72.944 154.714 72.8647 154.556 72.706C154.397 72.5473 154.318 72.3607 154.318 72.146C154.318 71.9313 154.397 71.7447 154.556 71.586C154.714 71.4273 154.901 71.348 155.116 71.348C155.33 71.348 155.517 71.4273 155.676 71.586C155.834 71.7447 155.914 71.9313 155.914 72.146ZM155.802 80H154.444V74.47H155.802V80ZM158.463 74.974C158.846 74.5167 159.41 74.288 160.157 74.288C161.426 74.288 162.061 75.0673 162.061 76.626V80H160.717V77.074C160.717 75.9073 160.358 75.324 159.639 75.324C158.855 75.324 158.463 75.9493 158.463 77.2V80H157.105V74.47H158.463V74.974ZM164.715 80H163.357V75.688H162.713V74.582H163.357V72.846C163.357 71.1567 164.015 70.312 165.331 70.312C165.602 70.312 165.854 70.3727 166.087 70.494V71.67C165.844 71.5487 165.63 71.488 165.443 71.488C165.191 71.488 165.004 71.5813 164.883 71.768C164.771 71.9453 164.715 72.3793 164.715 73.07V74.582H166.087V75.688H164.715V80ZM172.039 77.228C172.039 78.096 171.773 78.8053 171.241 79.356C170.709 79.9067 170.009 80.182 169.141 80.182C168.282 80.182 167.582 79.9067 167.041 79.356C166.5 78.8053 166.229 78.1007 166.229 77.242C166.229 76.374 166.495 75.6647 167.027 75.114C167.559 74.5633 168.259 74.288 169.127 74.288C169.995 74.288 170.695 74.5633 171.227 75.114C171.768 75.6553 172.039 76.36 172.039 77.228ZM167.601 77.256C167.601 77.7693 167.746 78.1893 168.035 78.516C168.324 78.8427 168.698 79.006 169.155 79.006C169.612 79.006 169.976 78.8333 170.247 78.488C170.527 78.1333 170.667 77.718 170.667 77.242C170.667 76.7567 170.527 76.3413 170.247 75.996C169.967 75.6413 169.598 75.464 169.141 75.464C168.693 75.464 168.324 75.632 168.035 75.968C167.746 76.304 167.601 76.7333 167.601 77.256ZM174.145 75.044C174.49 74.54 175.031 74.288 175.769 74.288C176.002 74.288 176.217 74.3347 176.413 74.428L176.245 75.66C176.039 75.5293 175.815 75.464 175.573 75.464C174.621 75.464 174.145 76.1453 174.145 77.508V80H172.787V74.47H174.145V75.044ZM178.273 74.96C178.619 74.512 179.151 74.288 179.869 74.288C180.495 74.288 180.989 74.5773 181.353 75.156C181.708 74.5773 182.282 74.288 183.075 74.288C184.242 74.288 184.825 75.044 184.825 76.556V80H183.481V77.088C183.481 75.912 183.159 75.324 182.515 75.324C181.871 75.324 181.549 75.9773 181.549 77.284V80H180.191V77.2C180.191 75.9493 179.907 75.324 179.337 75.324C178.628 75.324 178.273 75.9773 178.273 77.284V80H176.915V74.47H178.273V74.96ZM191.202 80H189.872V79.496C189.48 79.9533 188.897 80.182 188.122 80.182C187.348 80.182 186.727 79.8833 186.26 79.286C185.803 78.6887 185.574 77.9887 185.574 77.186C185.574 76.3833 185.808 75.702 186.274 75.142C186.75 74.5727 187.357 74.288 188.094 74.288C188.878 74.288 189.471 74.5213 189.872 74.988V74.47H191.202V80ZM190.026 77.228C190.026 76.7147 189.882 76.2947 189.592 75.968C189.303 75.632 188.93 75.464 188.472 75.464C188.024 75.464 187.656 75.6273 187.366 75.954C187.086 76.2713 186.946 76.696 186.946 77.228C186.946 77.76 187.091 78.1893 187.38 78.516C187.67 78.8427 188.043 79.006 188.5 79.006C188.958 79.006 189.326 78.8473 189.606 78.53C189.886 78.2127 190.026 77.7787 190.026 77.228ZM194.003 80H192.645V75.688H191.987V74.582H192.645V72.594H194.003V74.582H195.081V75.688H194.003V80ZM197.093 72.146C197.093 72.3607 197.014 72.5473 196.855 72.706C196.697 72.8647 196.51 72.944 196.295 72.944C196.081 72.944 195.894 72.8647 195.735 72.706C195.577 72.5473 195.497 72.3607 195.497 72.146C195.497 71.9313 195.577 71.7447 195.735 71.586C195.894 71.4273 196.081 71.348 196.295 71.348C196.51 71.348 196.697 71.4273 196.855 71.586C197.014 71.7447 197.093 71.9313 197.093 72.146ZM196.981 80H195.623V74.47H196.981V80ZM202.051 75.912C201.705 75.5667 201.318 75.394 200.889 75.394C200.385 75.394 199.988 75.576 199.699 75.94C199.409 76.304 199.265 76.752 199.265 77.284C199.265 77.8067 199.428 78.236 199.755 78.572C200.081 78.908 200.478 79.076 200.945 79.076C201.346 79.076 201.715 78.8987 202.051 78.544V79.846C201.659 80.07 201.206 80.182 200.693 80.182C199.89 80.182 199.223 79.8973 198.691 79.328C198.159 78.7587 197.893 78.0633 197.893 77.242C197.893 76.4207 198.163 75.7253 198.705 75.156C199.255 74.5773 199.941 74.288 200.763 74.288C201.248 74.288 201.677 74.4047 202.051 74.638V75.912ZM205.983 75.618C205.684 75.338 205.371 75.198 205.045 75.198C204.55 75.198 204.303 75.422 204.303 75.87C204.303 76.122 204.527 76.3273 204.975 76.486C205.796 76.7847 206.305 77.06 206.501 77.312C206.697 77.5547 206.795 77.858 206.795 78.222C206.795 78.8193 206.585 79.2953 206.165 79.65C205.754 80.0047 205.245 80.182 204.639 80.182C203.855 80.182 203.206 79.874 202.693 79.258L203.295 78.488C203.761 78.9547 204.191 79.188 204.583 79.188C205.152 79.188 205.437 78.9127 205.437 78.362C205.437 78.082 205.287 77.8767 204.989 77.746C204.69 77.606 204.461 77.5033 204.303 77.438C203.444 77.0647 203.015 76.612 203.015 76.08C203.015 75.548 203.173 75.1187 203.491 74.792C203.817 74.456 204.242 74.288 204.765 74.288C205.511 74.288 206.104 74.4793 206.543 74.862L205.983 75.618ZM210.058 78.404L208.434 81.792L207.384 81.666L208.616 78.236L210.058 78.404ZM218.547 75.618C218.249 75.338 217.936 75.198 217.609 75.198C217.115 75.198 216.867 75.422 216.867 75.87C216.867 76.122 217.091 76.3273 217.539 76.486C218.361 76.7847 218.869 77.06 219.065 77.312C219.261 77.5547 219.359 77.858 219.359 78.222C219.359 78.8193 219.149 79.2953 218.729 79.65C218.319 80.0047 217.81 80.182 217.203 80.182C216.419 80.182 215.771 79.874 215.257 79.258L215.859 78.488C216.326 78.9547 216.755 79.188 217.147 79.188C217.717 79.188 218.001 78.9127 218.001 78.362C218.001 78.082 217.852 77.8767 217.553 77.746C217.255 77.606 217.026 77.5033 216.867 77.438C216.009 77.0647 215.579 76.612 215.579 76.08C215.579 75.548 215.738 75.1187 216.055 74.792C216.382 74.456 216.807 74.288 217.329 74.288C218.076 74.288 218.669 74.4793 219.107 74.862L218.547 75.618ZM221.264 77.368C221.264 77.9 221.381 78.3387 221.614 78.684C221.848 79.0293 222.17 79.202 222.58 79.202C223.224 79.202 223.635 78.8847 223.812 78.25L225.1 78.46C224.68 79.608 223.84 80.182 222.58 80.182C221.74 80.182 221.068 79.916 220.564 79.384C220.07 78.8427 219.822 78.1427 219.822 77.284C219.822 76.3787 220.06 75.6553 220.536 75.114C221.022 74.5633 221.675 74.288 222.496 74.288C223.327 74.288 223.971 74.5493 224.428 75.072C224.895 75.5853 225.128 76.29 225.128 77.186V77.368H221.264ZM223.868 76.612C223.868 76.2293 223.747 75.8933 223.504 75.604C223.271 75.3147 222.963 75.17 222.58 75.17C222.207 75.17 221.899 75.324 221.656 75.632C221.423 75.9307 221.306 76.2573 221.306 76.612H223.868ZM226.911 77.368C226.911 77.9 227.027 78.3387 227.261 78.684C227.494 79.0293 227.816 79.202 228.227 79.202C228.871 79.202 229.281 78.8847 229.459 78.25L230.747 78.46C230.327 79.608 229.487 80.182 228.227 80.182C227.387 80.182 226.715 79.916 226.211 79.384C225.716 78.8427 225.469 78.1427 225.469 77.284C225.469 76.3787 225.707 75.6553 226.183 75.114C226.668 74.5633 227.321 74.288 228.143 74.288C228.973 74.288 229.617 74.5493 230.075 75.072C230.541 75.5853 230.775 76.29 230.775 77.186V77.368H226.911ZM229.515 76.612C229.515 76.2293 229.393 75.8933 229.151 75.604C228.917 75.3147 228.609 75.17 228.227 75.17C227.853 75.17 227.545 75.324 227.303 75.632C227.069 75.9307 226.953 76.2573 226.953 76.612H229.515ZM232.949 76.794L234.881 74.47H236.701L234.377 76.906L236.883 80H235.035L232.977 77.312L232.949 80H231.591V70.438H232.949V76.794ZM239.093 72.146C239.093 72.3607 239.014 72.5473 238.855 72.706C238.697 72.8647 238.51 72.944 238.295 72.944C238.081 72.944 237.894 72.8647 237.735 72.706C237.577 72.5473 237.497 72.3607 237.497 72.146C237.497 71.9313 237.577 71.7447 237.735 71.586C237.894 71.4273 238.081 71.348 238.295 71.348C238.51 71.348 238.697 71.4273 238.855 71.586C239.014 71.7447 239.093 71.9313 239.093 72.146ZM238.981 80H237.623V74.47H238.981V80ZM241.643 74.974C242.025 74.5167 242.59 74.288 243.337 74.288C244.606 74.288 245.241 75.0673 245.241 76.626V80H243.897V77.074C243.897 75.9073 243.537 75.324 242.819 75.324C242.035 75.324 241.643 75.9493 241.643 77.2V80H240.285V74.47H241.643V74.974ZM251.633 79.524C251.633 81.4187 250.751 82.366 248.987 82.366C248.203 82.366 247.54 82.1513 246.999 81.722C246.457 81.302 246.187 80.7513 246.187 80.07H247.629C247.629 80.3407 247.764 80.6067 248.035 80.868C248.305 81.1293 248.609 81.26 248.945 81.26C249.831 81.26 250.275 80.728 250.275 79.664V79.314C249.892 79.7993 249.309 80.042 248.525 80.042C247.75 80.042 247.139 79.7713 246.691 79.23C246.252 78.6887 246.033 78.026 246.033 77.242C246.033 76.3927 246.271 75.6833 246.747 75.114C247.223 74.5447 247.839 74.26 248.595 74.26C249.36 74.26 249.92 74.498 250.275 74.974V74.442H251.633V79.524ZM250.471 77.116C250.471 76.612 250.331 76.206 250.051 75.898C249.771 75.59 249.402 75.436 248.945 75.436C248.487 75.436 248.114 75.604 247.825 75.94C247.545 76.276 247.405 76.7007 247.405 77.214C247.405 78.3153 247.918 78.866 248.945 78.866C249.411 78.866 249.78 78.7027 250.051 78.376C250.331 78.04 250.471 77.62 250.471 77.116ZM262.61 80H261.28V79.496C260.888 79.9533 260.305 80.182 259.53 80.182C258.756 80.182 258.135 79.8833 257.668 79.286C257.211 78.6887 256.982 77.9887 256.982 77.186C256.982 76.3833 257.216 75.702 257.682 75.142C258.158 74.5727 258.765 74.288 259.502 74.288C260.286 74.288 260.879 74.5213 261.28 74.988V74.47H262.61V80ZM261.434 77.228C261.434 76.7147 261.29 76.2947 261 75.968C260.711 75.632 260.338 75.464 259.88 75.464C259.432 75.464 259.064 75.6273 258.774 75.954C258.494 76.2713 258.354 76.696 258.354 77.228C258.354 77.76 258.499 78.1893 258.788 78.516C259.078 78.8427 259.451 79.006 259.908 79.006C260.366 79.006 260.734 78.8473 261.014 78.53C261.294 78.2127 261.434 77.7787 261.434 77.228ZM269.779 74.974C270.171 74.5167 270.755 74.288 271.529 74.288C272.257 74.288 272.859 74.5773 273.335 75.156C273.821 75.7347 274.063 76.416 274.063 77.2C274.063 78.0493 273.825 78.7587 273.349 79.328C272.873 79.8973 272.257 80.182 271.501 80.182C270.689 80.182 270.125 79.9487 269.807 79.482L269.779 82.338H268.421V74.47H269.779V74.974ZM272.677 77.228C272.677 76.752 272.542 76.3413 272.271 75.996C272.001 75.6413 271.627 75.464 271.151 75.464C270.713 75.464 270.349 75.6413 270.059 75.996C269.77 76.3507 269.625 76.7613 269.625 77.228C269.625 77.6853 269.779 78.096 270.087 78.46C270.395 78.824 270.75 79.006 271.151 79.006C271.627 79.006 272.001 78.838 272.271 78.502C272.542 78.166 272.677 77.7413 272.677 77.228ZM280.028 80H278.698V79.496C278.306 79.9533 277.723 80.182 276.948 80.182C276.174 80.182 275.553 79.8833 275.086 79.286C274.629 78.6887 274.4 77.9887 274.4 77.186C274.4 76.3833 274.634 75.702 275.1 75.142C275.576 74.5727 276.183 74.288 276.92 74.288C277.704 74.288 278.297 74.5213 278.698 74.988V74.47H280.028V80ZM278.852 77.228C278.852 76.7147 278.708 76.2947 278.418 75.968C278.129 75.632 277.756 75.464 277.298 75.464C276.85 75.464 276.482 75.6273 276.192 75.954C275.912 76.2713 275.772 76.696 275.772 77.228C275.772 77.76 275.917 78.1893 276.206 78.516C276.496 78.8427 276.869 79.006 277.326 79.006C277.784 79.006 278.152 78.8473 278.432 78.53C278.712 78.2127 278.852 77.7787 278.852 77.228ZM282.83 80H281.472V75.688H280.814V74.582H281.472V72.594H282.83V74.582H283.908V75.688H282.83V80ZM285.611 70.438V74.932C285.966 74.5027 286.531 74.288 287.305 74.288C287.884 74.288 288.346 74.512 288.691 74.96C289.037 75.408 289.209 75.9633 289.209 76.626V80H287.865V77.074C287.865 75.9073 287.506 75.324 286.787 75.324C286.003 75.324 285.611 75.968 285.611 77.256V80H284.253V70.438H285.611ZM296.679 80H295.321V75.688H294.663V74.582H295.321V72.594H296.679V74.582H297.757V75.688H296.679V80ZM303.535 77.228C303.535 78.096 303.269 78.8053 302.737 79.356C302.205 79.9067 301.505 80.182 300.637 80.182C299.778 80.182 299.078 79.9067 298.537 79.356C297.996 78.8053 297.725 78.1007 297.725 77.242C297.725 76.374 297.991 75.6647 298.523 75.114C299.055 74.5633 299.755 74.288 300.623 74.288C301.491 74.288 302.191 74.5633 302.723 75.114C303.264 75.6553 303.535 76.36 303.535 77.228ZM299.097 77.256C299.097 77.7693 299.242 78.1893 299.531 78.516C299.82 78.8427 300.194 79.006 300.651 79.006C301.108 79.006 301.472 78.8333 301.743 78.488C302.023 78.1333 302.163 77.718 302.163 77.242C302.163 76.7567 302.023 76.3413 301.743 75.996C301.463 75.6413 301.094 75.464 300.637 75.464C300.189 75.464 299.82 75.632 299.531 75.968C299.242 76.304 299.097 76.7333 299.097 77.256ZM1.56 84.438H2.918V88.974C3.31 88.5167 3.89333 88.288 4.668 88.288C5.396 88.288 5.998 88.5773 6.474 89.156C6.95933 89.7347 7.202 90.416 7.202 91.2C7.202 92.0493 6.964 92.7587 6.488 93.328C6.012 93.8973 5.396 94.182 4.64 94.182C3.828 94.182 3.26333 93.9487 2.946 93.482L2.918 94H1.56V84.438ZM5.816 91.228C5.816 90.7613 5.67133 90.3507 5.382 89.996C5.09267 89.6413 4.724 89.464 4.276 89.464C3.828 89.464 3.464 89.6413 3.184 89.996C2.904 90.3413 2.764 90.7567 2.764 91.242C2.764 91.718 2.90867 92.1333 3.198 92.488C3.49667 92.8333 3.86067 93.006 4.29 93.006C4.75667 93.006 5.12533 92.838 5.396 92.502C5.676 92.1567 5.816 91.732 5.816 91.228ZM8.98109 91.368C8.98109 91.9 9.09776 92.3387 9.33109 92.684C9.56443 93.0293 9.88643 93.202 10.2971 93.202C10.9411 93.202 11.3518 92.8847 11.5291 92.25L12.8171 92.46C12.3971 93.608 11.5571 94.182 10.2971 94.182C9.45709 94.182 8.78509 93.916 8.28109 93.384C7.78643 92.8427 7.53909 92.1427 7.53909 91.284C7.53909 90.3787 7.77709 89.6553 8.25309 89.114C8.73843 88.5633 9.39176 88.288 10.2131 88.288C11.0438 88.288 11.6878 88.5493 12.1451 89.072C12.6118 89.5853 12.8451 90.29 12.8451 91.186V91.368H8.98109ZM11.5851 90.612C11.5851 90.2293 11.4638 89.8933 11.2211 89.604C10.9878 89.3147 10.6798 89.17 10.2971 89.17C9.92376 89.17 9.61576 89.324 9.37309 89.632C9.13976 89.9307 9.02309 90.2573 9.02309 90.612H11.5851ZM14.9356 88.974C15.3182 88.5167 15.8829 88.288 16.6296 88.288C17.8989 88.288 18.5336 89.0673 18.5336 90.626V94H17.1896V91.074C17.1896 89.9073 16.8302 89.324 16.1116 89.324C15.3276 89.324 14.9356 89.9493 14.9356 91.2V94H13.5776V88.47H14.9356V88.974ZM20.7116 91.368C20.7116 91.9 20.8282 92.3387 21.0616 92.684C21.2949 93.0293 21.6169 93.202 22.0276 93.202C22.6716 93.202 23.0822 92.8847 23.2596 92.25L24.5476 92.46C24.1276 93.608 23.2876 94.182 22.0276 94.182C21.1876 94.182 20.5156 93.916 20.0116 93.384C19.5169 92.8427 19.2696 92.1427 19.2696 91.284C19.2696 90.3787 19.5076 89.6553 19.9836 89.114C20.4689 88.5633 21.1222 88.288 21.9436 88.288C22.7742 88.288 23.4182 88.5493 23.8756 89.072C24.3422 89.5853 24.5756 90.29 24.5756 91.186V91.368H20.7116ZM23.3156 90.612C23.3156 90.2293 23.1942 89.8933 22.9516 89.604C22.7182 89.3147 22.4102 89.17 22.0276 89.17C21.6542 89.17 21.3462 89.324 21.1036 89.632C20.8702 89.9307 20.7536 90.2573 20.7536 90.612H23.3156ZM26.834 94H25.476V89.688H24.832V88.582H25.476V86.846C25.476 85.1567 26.134 84.312 27.45 84.312C27.7207 84.312 27.9727 84.3727 28.206 84.494V85.67C27.9634 85.5487 27.7487 85.488 27.562 85.488C27.31 85.488 27.1234 85.5813 27.002 85.768C26.89 85.9453 26.834 86.3793 26.834 87.07V88.582H28.206V89.688H26.834V94ZM30.392 86.146C30.392 86.3607 30.3127 86.5473 30.154 86.706C29.9953 86.8647 29.8087 86.944 29.594 86.944C29.3793 86.944 29.1927 86.8647 29.034 86.706C28.8753 86.5473 28.796 86.3607 28.796 86.146C28.796 85.9313 28.8753 85.7447 29.034 85.586C29.1927 85.4273 29.3793 85.348 29.594 85.348C29.8087 85.348 29.9953 85.4273 30.154 85.586C30.3127 85.7447 30.392 85.9313 30.392 86.146ZM30.28 94H28.922V88.47H30.28V94ZM33.2494 94H31.8914V89.688H31.2334V88.582H31.8914V86.594H33.2494V88.582H34.3274V89.688H33.2494V94ZM40.7071 88.974C41.0991 88.5167 41.6824 88.288 42.4571 88.288C43.1851 88.288 43.7871 88.5773 44.2631 89.156C44.7484 89.7347 44.9911 90.416 44.9911 91.2C44.9911 92.0493 44.7531 92.7587 44.2771 93.328C43.8011 93.8973 43.1851 94.182 42.4291 94.182C41.6171 94.182 41.0524 93.9487 40.7351 93.482L40.7071 96.338H39.3491V88.47H40.7071V88.974ZM43.6051 91.228C43.6051 90.752 43.4697 90.3413 43.1991 89.996C42.9284 89.6413 42.5551 89.464 42.0791 89.464C41.6404 89.464 41.2764 89.6413 40.9871 89.996C40.6977 90.3507 40.5531 90.7613 40.5531 91.228C40.5531 91.6853 40.7071 92.096 41.0151 92.46C41.3231 92.824 41.6777 93.006 42.0791 93.006C42.5551 93.006 42.9284 92.838 43.1991 92.502C43.4697 92.166 43.6051 91.7413 43.6051 91.228ZM46.7702 91.368C46.7702 91.9 46.8868 92.3387 47.1202 92.684C47.3535 93.0293 47.6755 93.202 48.0862 93.202C48.7302 93.202 49.1408 92.8847 49.3182 92.25L50.6062 92.46C50.1862 93.608 49.3462 94.182 48.0862 94.182C47.2462 94.182 46.5742 93.916 46.0702 93.384C45.5755 92.8427 45.3282 92.1427 45.3282 91.284C45.3282 90.3787 45.5662 89.6553 46.0422 89.114C46.5275 88.5633 47.1808 88.288 48.0022 88.288C48.8328 88.288 49.4768 88.5493 49.9342 89.072C50.4008 89.5853 50.6342 90.29 50.6342 91.186V91.368H46.7702ZM49.3742 90.612C49.3742 90.2293 49.2528 89.8933 49.0102 89.604C48.7768 89.3147 48.4688 89.17 48.0862 89.17C47.7128 89.17 47.4048 89.324 47.1622 89.632C46.9288 89.9307 46.8122 90.2573 46.8122 90.612H49.3742ZM56.7986 91.228C56.7986 92.096 56.5326 92.8053 56.0006 93.356C55.4686 93.9067 54.7686 94.182 53.9006 94.182C53.042 94.182 52.342 93.9067 51.8006 93.356C51.2593 92.8053 50.9886 92.1007 50.9886 91.242C50.9886 90.374 51.2546 89.6647 51.7866 89.114C52.3186 88.5633 53.0186 88.288 53.8866 88.288C54.7546 88.288 55.4546 88.5633 55.9866 89.114C56.528 89.6553 56.7986 90.36 56.7986 91.228ZM52.3606 91.256C52.3606 91.7693 52.5053 92.1893 52.7946 92.516C53.084 92.8427 53.4573 93.006 53.9146 93.006C54.372 93.006 54.736 92.8333 55.0066 92.488C55.2866 92.1333 55.4266 91.718 55.4266 91.242C55.4266 90.7567 55.2866 90.3413 55.0066 89.996C54.7266 89.6413 54.358 89.464 53.9006 89.464C53.4526 89.464 53.084 89.632 52.7946 89.968C52.5053 90.304 52.3606 90.7333 52.3606 91.256ZM58.9043 88.974C59.2963 88.5167 59.8797 88.288 60.6543 88.288C61.3823 88.288 61.9843 88.5773 62.4603 89.156C62.9457 89.7347 63.1883 90.416 63.1883 91.2C63.1883 92.0493 62.9503 92.7587 62.4743 93.328C61.9983 93.8973 61.3823 94.182 60.6263 94.182C59.8143 94.182 59.2497 93.9487 58.9323 93.482L58.9043 96.338H57.5463V88.47H58.9043V88.974ZM61.8023 91.228C61.8023 90.752 61.667 90.3413 61.3963 89.996C61.1257 89.6413 60.7523 89.464 60.2763 89.464C59.8377 89.464 59.4737 89.6413 59.1843 89.996C58.895 90.3507 58.7503 90.7613 58.7503 91.228C58.7503 91.6853 58.9043 92.096 59.2123 92.46C59.5203 92.824 59.875 93.006 60.2763 93.006C60.7523 93.006 61.1257 92.838 61.3963 92.502C61.667 92.166 61.8023 91.7413 61.8023 91.228ZM65.3874 94H64.0294V84.438H65.3874V94ZM67.6608 91.368C67.6608 91.9 67.7774 92.3387 68.0108 92.684C68.2441 93.0293 68.5661 93.202 68.9768 93.202C69.6208 93.202 70.0314 92.8847 70.2088 92.25L71.4968 92.46C71.0768 93.608 70.2368 94.182 68.9768 94.182C68.1368 94.182 67.4648 93.916 66.9608 93.384C66.4661 92.8427 66.2188 92.1427 66.2188 91.284C66.2188 90.3787 66.4568 89.6553 66.9328 89.114C67.4181 88.5633 68.0714 88.288 68.8928 88.288C69.7234 88.288 70.3674 88.5493 70.8248 89.072C71.2914 89.5853 71.5248 90.29 71.5248 91.186V91.368H67.6608ZM70.2648 90.612C70.2648 90.2293 70.1434 89.8933 69.9008 89.604C69.6674 89.3147 69.3594 89.17 68.9768 89.17C68.6034 89.17 68.2954 89.324 68.0528 89.632C67.8194 89.9307 67.7028 90.2573 67.7028 90.612H70.2648ZM76.2893 84.802C76.2893 85.586 75.8226 86.3 74.8893 86.944L74.3993 86.356C74.4926 86.3 74.5673 86.258 74.6233 86.23C75.0153 86.006 75.2813 85.7447 75.4213 85.446C75.4306 85.418 75.4446 85.3853 75.4633 85.348H74.6513V83.626H76.2893V84.802ZM89.2113 89.618C88.9126 89.338 88.5999 89.198 88.2733 89.198C87.7786 89.198 87.5313 89.422 87.5313 89.87C87.5313 90.122 87.7553 90.3273 88.2033 90.486C89.0246 90.7847 89.5333 91.06 89.7293 91.312C89.9253 91.5547 90.0233 91.858 90.0233 92.222C90.0233 92.8193 89.8133 93.2953 89.3933 93.65C88.9826 94.0047 88.4739 94.182 87.8673 94.182C87.0833 94.182 86.4346 93.874 85.9213 93.258L86.5233 92.488C86.9899 92.9547 87.4193 93.188 87.8113 93.188C88.3806 93.188 88.6653 92.9127 88.6653 92.362C88.6653 92.082 88.5159 91.8767 88.2173 91.746C87.9186 91.606 87.6899 91.5033 87.5313 91.438C86.6726 91.0647 86.2433 90.612 86.2433 90.08C86.2433 89.548 86.4019 89.1187 86.7193 88.792C87.0459 88.456 87.4706 88.288 87.9933 88.288C88.7399 88.288 89.3326 88.4793 89.7713 88.862L89.2113 89.618ZM97.6541 92.082L99.1241 88.288H99.6141L101.154 92.068L102.526 88.47H104.024L101.448 94.112H100.762L99.4881 90.57L98.0321 94.112H97.3321L94.7981 88.47H96.2961L97.6541 92.082ZM105.423 91.368C105.423 91.9 105.539 92.3387 105.773 92.684C106.006 93.0293 106.328 93.202 106.739 93.202C107.383 93.202 107.793 92.8847 107.971 92.25L109.259 92.46C108.839 93.608 107.999 94.182 106.739 94.182C105.899 94.182 105.227 93.916 104.723 93.384C104.228 92.8427 103.981 92.1427 103.981 91.284C103.981 90.3787 104.219 89.6553 104.695 89.114C105.18 88.5633 105.833 88.288 106.655 88.288C107.485 88.288 108.129 88.5493 108.587 89.072C109.053 89.5853 109.287 90.29 109.287 91.186V91.368H105.423ZM108.027 90.612C108.027 90.2293 107.905 89.8933 107.663 89.604C107.429 89.3147 107.121 89.17 106.739 89.17C106.365 89.17 106.057 89.324 105.815 89.632C105.581 89.9307 105.465 90.2573 105.465 90.612H108.027ZM111.489 94H110.131V84.438H111.489V94ZM114.182 94H112.824V84.438H114.182V94ZM118.08 89.744V91.032H115.336V89.744H118.08ZM119.124 84.438H120.482V88.974C120.874 88.5167 121.458 88.288 122.232 88.288C122.96 88.288 123.562 88.5773 124.038 89.156C124.524 89.7347 124.766 90.416 124.766 91.2C124.766 92.0493 124.528 92.7587 124.052 93.328C123.576 93.8973 122.96 94.182 122.204 94.182C121.392 94.182 120.828 93.9487 120.51 93.482L120.482 94H119.124V84.438ZM123.38 91.228C123.38 90.7613 123.236 90.3507 122.946 89.996C122.657 89.6413 122.288 89.464 121.84 89.464C121.392 89.464 121.028 89.6413 120.748 89.996C120.468 90.3413 120.328 90.7567 120.328 91.242C120.328 91.718 120.473 92.1333 120.762 92.488C121.061 92.8333 121.425 93.006 121.854 93.006C122.321 93.006 122.69 92.838 122.96 92.502C123.24 92.1567 123.38 91.732 123.38 91.228ZM126.546 91.368C126.546 91.9 126.662 92.3387 126.896 92.684C127.129 93.0293 127.451 93.202 127.862 93.202C128.506 93.202 128.916 92.8847 129.094 92.25L130.382 92.46C129.962 93.608 129.122 94.182 127.862 94.182C127.022 94.182 126.35 93.916 125.846 93.384C125.351 92.8427 125.104 92.1427 125.104 91.284C125.104 90.3787 125.342 89.6553 125.818 89.114C126.303 88.5633 126.956 88.288 127.778 88.288C128.608 88.288 129.252 88.5493 129.71 89.072C130.176 89.5853 130.41 90.29 130.41 91.186V91.368H126.546ZM129.15 90.612C129.15 90.2293 129.028 89.8933 128.786 89.604C128.552 89.3147 128.244 89.17 127.862 89.17C127.488 89.17 127.18 89.324 126.938 89.632C126.704 89.9307 126.588 90.2573 126.588 90.612H129.15ZM132.808 86.146C132.808 86.3607 132.729 86.5473 132.57 86.706C132.411 86.8647 132.225 86.944 132.01 86.944C131.795 86.944 131.609 86.8647 131.45 86.706C131.291 86.5473 131.212 86.3607 131.212 86.146C131.212 85.9313 131.291 85.7447 131.45 85.586C131.609 85.4273 131.795 85.348 132.01 85.348C132.225 85.348 132.411 85.4273 132.57 85.586C132.729 85.7447 132.808 85.9313 132.808 86.146ZM132.696 94H131.338V88.47H132.696V94ZM135.357 88.974C135.74 88.5167 136.305 88.288 137.051 88.288C138.321 88.288 138.955 89.0673 138.955 90.626V94H137.611V91.074C137.611 89.9073 137.252 89.324 136.533 89.324C135.749 89.324 135.357 89.9493 135.357 91.2V94H133.999V88.47H135.357V88.974ZM145.347 93.524C145.347 95.4187 144.465 96.366 142.701 96.366C141.917 96.366 141.255 96.1513 140.713 95.722C140.172 95.302 139.901 94.7513 139.901 94.07H141.343C141.343 94.3407 141.479 94.6067 141.749 94.868C142.02 95.1293 142.323 95.26 142.659 95.26C143.546 95.26 143.989 94.728 143.989 93.664V93.314C143.607 93.7993 143.023 94.042 142.239 94.042C141.465 94.042 140.853 93.7713 140.405 93.23C139.967 92.6887 139.747 92.026 139.747 91.242C139.747 90.3927 139.985 89.6833 140.461 89.114C140.937 88.5447 141.553 88.26 142.309 88.26C143.075 88.26 143.635 88.498 143.989 88.974V88.442H145.347V93.524ZM144.185 91.116C144.185 90.612 144.045 90.206 143.765 89.898C143.485 89.59 143.117 89.436 142.659 89.436C142.202 89.436 141.829 89.604 141.539 89.94C141.259 90.276 141.119 90.7007 141.119 91.214C141.119 92.3153 141.633 92.866 142.659 92.866C143.126 92.866 143.495 92.7027 143.765 92.376C144.045 92.04 144.185 91.62 144.185 91.116ZM153.189 92.082L154.659 88.288H155.149L156.689 92.068L158.061 88.47H159.559L156.983 94.112H156.297L155.023 90.57L153.567 94.112H152.867L150.333 88.47H151.831L153.189 92.082ZM161.574 86.146C161.574 86.3607 161.494 86.5473 161.336 86.706C161.177 86.8647 160.99 86.944 160.776 86.944C160.561 86.944 160.374 86.8647 160.216 86.706C160.057 86.5473 159.978 86.3607 159.978 86.146C159.978 85.9313 160.057 85.7447 160.216 85.586C160.374 85.4273 160.561 85.348 160.776 85.348C160.99 85.348 161.177 85.4273 161.336 85.586C161.494 85.7447 161.574 85.9313 161.574 86.146ZM161.462 94H160.104V88.47H161.462V94ZM164.431 94H163.073V89.688H162.415V88.582H163.073V86.594H164.431V88.582H165.509V89.688H164.431V94ZM167.213 84.438V88.932C167.568 88.5027 168.132 88.288 168.907 88.288C169.486 88.288 169.948 88.512 170.293 88.96C170.638 89.408 170.811 89.9633 170.811 90.626V94H169.467V91.074C169.467 89.9073 169.108 89.324 168.389 89.324C167.605 89.324 167.213 89.968 167.213 91.256V94H165.855V84.438H167.213ZM178.281 94H176.923V89.688H176.265V88.582H176.923V86.594H178.281V88.582H179.359V89.688H178.281V94ZM180.755 91.368C180.755 91.9 180.871 92.3387 181.105 92.684C181.338 93.0293 181.66 93.202 182.071 93.202C182.715 93.202 183.125 92.8847 183.303 92.25L184.591 92.46C184.171 93.608 183.331 94.182 182.071 94.182C181.231 94.182 180.559 93.916 180.055 93.384C179.56 92.8427 179.313 92.1427 179.313 91.284C179.313 90.3787 179.551 89.6553 180.027 89.114C180.512 88.5633 181.165 88.288 181.987 88.288C182.817 88.288 183.461 88.5493 183.919 89.072C184.385 89.5853 184.619 90.29 184.619 91.186V91.368H180.755ZM183.359 90.612C183.359 90.2293 183.237 89.8933 182.995 89.604C182.761 89.3147 182.453 89.17 182.071 89.17C181.697 89.17 181.389 89.324 181.147 89.632C180.913 89.9307 180.797 90.2573 180.797 90.612H183.359ZM189.117 89.912C188.772 89.5667 188.384 89.394 187.955 89.394C187.451 89.394 187.054 89.576 186.765 89.94C186.476 90.304 186.331 90.752 186.331 91.284C186.331 91.8067 186.494 92.236 186.821 92.572C187.148 92.908 187.544 93.076 188.011 93.076C188.412 93.076 188.781 92.8987 189.117 92.544V93.846C188.725 94.07 188.272 94.182 187.759 94.182C186.956 94.182 186.289 93.8973 185.757 93.328C185.225 92.7587 184.959 92.0633 184.959 91.242C184.959 90.4207 185.23 89.7253 185.771 89.156C186.322 88.5773 187.008 88.288 187.829 88.288C188.314 88.288 188.744 88.4047 189.117 88.638V89.912ZM191.453 84.438V88.932C191.808 88.5027 192.372 88.288 193.147 88.288C193.726 88.288 194.188 88.512 194.533 88.96C194.878 89.408 195.051 89.9633 195.051 90.626V94H193.707V91.074C193.707 89.9073 193.348 89.324 192.629 89.324C191.845 89.324 191.453 89.968 191.453 91.256V94H190.095V84.438H191.453ZM197.537 88.974C197.92 88.5167 198.484 88.288 199.231 88.288C200.5 88.288 201.135 89.0673 201.135 90.626V94H199.791V91.074C199.791 89.9073 199.432 89.324 198.713 89.324C197.929 89.324 197.537 89.9493 197.537 91.2V94H196.179V88.47H197.537V88.974ZM207.695 91.228C207.695 92.096 207.429 92.8053 206.897 93.356C206.365 93.9067 205.665 94.182 204.797 94.182C203.938 94.182 203.238 93.9067 202.697 93.356C202.156 92.8053 201.885 92.1007 201.885 91.242C201.885 90.374 202.151 89.6647 202.683 89.114C203.215 88.5633 203.915 88.288 204.783 88.288C205.651 88.288 206.351 88.5633 206.883 89.114C207.424 89.6553 207.695 90.36 207.695 91.228ZM203.257 91.256C203.257 91.7693 203.402 92.1893 203.691 92.516C203.98 92.8427 204.354 93.006 204.811 93.006C205.268 93.006 205.632 92.8333 205.903 92.488C206.183 92.1333 206.323 91.718 206.323 91.242C206.323 90.7567 206.183 90.3413 205.903 89.996C205.623 89.6413 205.254 89.464 204.797 89.464C204.349 89.464 203.98 89.632 203.691 89.968C203.402 90.304 203.257 90.7333 203.257 91.256ZM209.913 94H208.555V84.438H209.913V94ZM216.568 91.228C216.568 92.096 216.302 92.8053 215.77 93.356C215.238 93.9067 214.538 94.182 213.67 94.182C212.812 94.182 212.112 93.9067 211.57 93.356C211.029 92.8053 210.758 92.1007 210.758 91.242C210.758 90.374 211.024 89.6647 211.556 89.114C212.088 88.5633 212.788 88.288 213.656 88.288C214.524 88.288 215.224 88.5633 215.756 89.114C216.298 89.6553 216.568 90.36 216.568 91.228ZM212.13 91.256C212.13 91.7693 212.275 92.1893 212.564 92.516C212.854 92.8427 213.227 93.006 213.684 93.006C214.142 93.006 214.506 92.8333 214.776 92.488C215.056 92.1333 215.196 91.718 215.196 91.242C215.196 90.7567 215.056 90.3413 214.776 89.996C214.496 89.6413 214.128 89.464 213.67 89.464C213.222 89.464 212.854 89.632 212.564 89.968C212.275 90.304 212.13 90.7333 212.13 91.256ZM222.58 93.524C222.58 95.4187 221.698 96.366 219.934 96.366C219.15 96.366 218.487 96.1513 217.946 95.722C217.405 95.302 217.134 94.7513 217.134 94.07H218.576C218.576 94.3407 218.711 94.6067 218.982 94.868C219.253 95.1293 219.556 95.26 219.892 95.26C220.779 95.26 221.222 94.728 221.222 93.664V93.314C220.839 93.7993 220.256 94.042 219.472 94.042C218.697 94.042 218.086 93.7713 217.638 93.23C217.199 92.6887 216.98 92.026 216.98 91.242C216.98 90.3927 217.218 89.6833 217.694 89.114C218.17 88.5447 218.786 88.26 219.542 88.26C220.307 88.26 220.867 88.498 221.222 88.974V88.442H222.58V93.524ZM221.418 91.116C221.418 90.612 221.278 90.206 220.998 89.898C220.718 89.59 220.349 89.436 219.892 89.436C219.435 89.436 219.061 89.604 218.772 89.94C218.492 90.276 218.352 90.7007 218.352 91.214C218.352 92.3153 218.865 92.866 219.892 92.866C220.359 92.866 220.727 92.7027 220.998 92.376C221.278 92.04 221.418 91.62 221.418 91.116ZM225.312 86.146C225.312 86.3607 225.233 86.5473 225.074 86.706C224.915 86.8647 224.729 86.944 224.514 86.944C224.299 86.944 224.113 86.8647 223.954 86.706C223.795 86.5473 223.716 86.3607 223.716 86.146C223.716 85.9313 223.795 85.7447 223.954 85.586C224.113 85.4273 224.299 85.348 224.514 85.348C224.729 85.348 224.915 85.4273 225.074 85.586C225.233 85.7447 225.312 85.9313 225.312 86.146ZM225.2 94H223.842V88.47H225.2V94ZM227.553 91.368C227.553 91.9 227.67 92.3387 227.903 92.684C228.137 93.0293 228.459 93.202 228.869 93.202C229.513 93.202 229.924 92.8847 230.101 92.25L231.389 92.46C230.969 93.608 230.129 94.182 228.869 94.182C228.029 94.182 227.357 93.916 226.853 93.384C226.359 92.8427 226.111 92.1427 226.111 91.284C226.111 90.3787 226.349 89.6553 226.825 89.114C227.311 88.5633 227.964 88.288 228.785 88.288C229.616 88.288 230.26 88.5493 230.717 89.072C231.184 89.5853 231.417 90.29 231.417 91.186V91.368H227.553ZM230.157 90.612C230.157 90.2293 230.036 89.8933 229.793 89.604C229.56 89.3147 229.252 89.17 228.869 89.17C228.496 89.17 228.188 89.324 227.945 89.632C227.712 89.9307 227.595 90.2573 227.595 90.612H230.157ZM235.104 89.618C234.805 89.338 234.493 89.198 234.166 89.198C233.671 89.198 233.424 89.422 233.424 89.87C233.424 90.122 233.648 90.3273 234.096 90.486C234.917 90.7847 235.426 91.06 235.622 91.312C235.818 91.5547 235.916 91.858 235.916 92.222C235.916 92.8193 235.706 93.2953 235.286 93.65C234.875 94.0047 234.367 94.182 233.76 94.182C232.976 94.182 232.327 93.874 231.814 93.258L232.416 92.488C232.883 92.9547 233.312 93.188 233.704 93.188C234.273 93.188 234.558 92.9127 234.558 92.362C234.558 92.082 234.409 91.8767 234.11 91.746C233.811 91.606 233.583 91.5033 233.424 91.438C232.565 91.0647 232.136 90.612 232.136 90.08C232.136 89.548 232.295 89.1187 232.612 88.792C232.939 88.456 233.363 88.288 233.886 88.288C234.633 88.288 235.225 88.4793 235.664 88.862L235.104 89.618ZM238.843 93.202C238.843 93.482 238.745 93.7247 238.549 93.93C238.362 94.126 238.129 94.224 237.849 94.224C237.569 94.224 237.331 94.126 237.135 93.93C236.939 93.734 236.841 93.5007 236.841 93.23C236.841 92.95 236.939 92.712 237.135 92.516C237.331 92.32 237.564 92.222 237.835 92.222C238.115 92.222 238.353 92.3153 238.549 92.502C238.745 92.6887 238.843 92.922 238.843 93.202ZM3.044 122H1.602V113.502H3.856C5.82533 113.502 6.81 114.379 6.81 116.134C6.81 117.926 5.90467 118.822 4.094 118.822H3.044V122ZM3.044 117.674H3.758C4.81267 117.674 5.34 117.161 5.34 116.134C5.34 115.145 4.79867 114.65 3.716 114.65H3.044V117.674ZM8.97727 122H7.61927V112.438H8.97727V122ZM11.2506 119.368C11.2506 119.9 11.3673 120.339 11.6006 120.684C11.834 121.029 12.156 121.202 12.5666 121.202C13.2106 121.202 13.6213 120.885 13.7986 120.25L15.0866 120.46C14.6666 121.608 13.8266 122.182 12.5666 122.182C11.7266 122.182 11.0546 121.916 10.5506 121.384C10.056 120.843 9.80863 120.143 9.80863 119.284C9.80863 118.379 10.0466 117.655 10.5226 117.114C11.008 116.563 11.6613 116.288 12.4826 116.288C13.3133 116.288 13.9573 116.549 14.4146 117.072C14.8813 117.585 15.1146 118.29 15.1146 119.186V119.368H11.2506ZM13.8546 118.612C13.8546 118.229 13.7333 117.893 13.4906 117.604C13.2573 117.315 12.9493 117.17 12.5666 117.17C12.1933 117.17 11.8853 117.324 11.6426 117.632C11.4093 117.931 11.2926 118.257 11.2926 118.612H13.8546ZM21.0831 122H19.7531V121.496C19.3611 121.953 18.7778 122.182 18.0031 122.182C17.2284 122.182 16.6078 121.883 16.1411 121.286C15.6838 120.689 15.4551 119.989 15.4551 119.186C15.4551 118.383 15.6884 117.702 16.1551 117.142C16.6311 116.573 17.2378 116.288 17.9751 116.288C18.7591 116.288 19.3518 116.521 19.7531 116.988V116.47H21.0831V122ZM19.9071 119.228C19.9071 118.715 19.7624 118.295 19.4731 117.968C19.1838 117.632 18.8104 117.464 18.3531 117.464C17.9051 117.464 17.5364 117.627 17.2471 117.954C16.9671 118.271 16.8271 118.696 16.8271 119.228C16.8271 119.76 16.9718 120.189 17.2611 120.516C17.5504 120.843 17.9238 121.006 18.3811 121.006C18.8384 121.006 19.2071 120.847 19.4871 120.53C19.7671 120.213 19.9071 119.779 19.9071 119.228ZM25.1722 117.618C24.8735 117.338 24.5609 117.198 24.2342 117.198C23.7395 117.198 23.4922 117.422 23.4922 117.87C23.4922 118.122 23.7162 118.327 24.1642 118.486C24.9855 118.785 25.4942 119.06 25.6902 119.312C25.8862 119.555 25.9842 119.858 25.9842 120.222C25.9842 120.819 25.7742 121.295 25.3542 121.65C24.9435 122.005 24.4349 122.182 23.8282 122.182C23.0442 122.182 22.3955 121.874 21.8822 121.258L22.4842 120.488C22.9509 120.955 23.3802 121.188 23.7722 121.188C24.3415 121.188 24.6262 120.913 24.6262 120.362C24.6262 120.082 24.4769 119.877 24.1782 119.746C23.8795 119.606 23.6509 119.503 23.4922 119.438C22.6335 119.065 22.2042 118.612 22.2042 118.08C22.2042 117.548 22.3629 117.119 22.6802 116.792C23.0069 116.456 23.4315 116.288 23.9542 116.288C24.7009 116.288 25.2935 116.479 25.7322 116.862L25.1722 117.618ZM27.8893 119.368C27.8893 119.9 28.006 120.339 28.2393 120.684C28.4726 121.029 28.7946 121.202 29.2053 121.202C29.8493 121.202 30.26 120.885 30.4373 120.25L31.7253 120.46C31.3053 121.608 30.4653 122.182 29.2053 122.182C28.3653 122.182 27.6933 121.916 27.1893 121.384C26.6946 120.843 26.4473 120.143 26.4473 119.284C26.4473 118.379 26.6853 117.655 27.1613 117.114C27.6466 116.563 28.3 116.288 29.1213 116.288C29.952 116.288 30.596 116.549 31.0533 117.072C31.52 117.585 31.7533 118.29 31.7533 119.186V119.368H27.8893ZM30.4933 118.612C30.4933 118.229 30.372 117.893 30.1293 117.604C29.896 117.315 29.588 117.17 29.2053 117.17C28.832 117.17 28.524 117.324 28.2813 117.632C28.048 117.931 27.9313 118.257 27.9313 118.612H30.4933ZM38.5196 117.044C38.8649 116.54 39.4062 116.288 40.1436 116.288C40.3769 116.288 40.5916 116.335 40.7876 116.428L40.6196 117.66C40.4142 117.529 40.1902 117.464 39.9476 117.464C38.9956 117.464 38.5196 118.145 38.5196 119.508V122H37.1616V116.47H38.5196V117.044ZM42.3405 119.368C42.3405 119.9 42.4571 120.339 42.6905 120.684C42.9238 121.029 43.2458 121.202 43.6565 121.202C44.3005 121.202 44.7111 120.885 44.8885 120.25L46.1765 120.46C45.7565 121.608 44.9165 122.182 43.6565 122.182C42.8165 122.182 42.1445 121.916 41.6405 121.384C41.1458 120.843 40.8985 120.143 40.8985 119.284C40.8985 118.379 41.1365 117.655 41.6125 117.114C42.0978 116.563 42.7511 116.288 43.5725 116.288C44.4031 116.288 45.0471 116.549 45.5045 117.072C45.9711 117.585 46.2045 118.29 46.2045 119.186V119.368H42.3405ZM44.9445 118.612C44.9445 118.229 44.8231 117.893 44.5805 117.604C44.3471 117.315 44.0391 117.17 43.6565 117.17C43.2831 117.17 42.9751 117.324 42.7325 117.632C42.4991 117.931 42.3825 118.257 42.3825 118.612H44.9445ZM52.173 122H50.843V121.496C50.451 121.953 49.8676 122.182 49.093 122.182C48.3183 122.182 47.6976 121.883 47.231 121.286C46.7736 120.689 46.545 119.989 46.545 119.186C46.545 118.383 46.7783 117.702 47.245 117.142C47.721 116.573 48.3276 116.288 49.065 116.288C49.849 116.288 50.4416 116.521 50.843 116.988V116.47H52.173V122ZM50.997 119.228C50.997 118.715 50.8523 118.295 50.563 117.968C50.2736 117.632 49.9003 117.464 49.443 117.464C48.995 117.464 48.6263 117.627 48.337 117.954C48.057 118.271 47.917 118.696 47.917 119.228C47.917 119.76 48.0616 120.189 48.351 120.516C48.6403 120.843 49.0136 121.006 49.471 121.006C49.9283 121.006 50.297 120.847 50.577 120.53C50.857 120.213 50.997 119.779 50.997 119.228ZM57.074 117.912C56.7287 117.567 56.3414 117.394 55.912 117.394C55.408 117.394 55.0114 117.576 54.722 117.94C54.4327 118.304 54.288 118.752 54.288 119.284C54.288 119.807 54.4514 120.236 54.778 120.572C55.1047 120.908 55.5014 121.076 55.968 121.076C56.3694 121.076 56.738 120.899 57.074 120.544V121.846C56.682 122.07 56.2294 122.182 55.716 122.182C54.9134 122.182 54.246 121.897 53.714 121.328C53.182 120.759 52.916 120.063 52.916 119.242C52.916 118.421 53.1867 117.725 53.728 117.156C54.2787 116.577 54.9647 116.288 55.786 116.288C56.2714 116.288 56.7007 116.405 57.074 116.638V117.912ZM59.4102 112.438V116.932C59.7649 116.503 60.3295 116.288 61.1042 116.288C61.6829 116.288 62.1449 116.512 62.4902 116.96C62.8355 117.408 63.0082 117.963 63.0082 118.626V122H61.6642V119.074C61.6642 117.907 61.3049 117.324 60.5862 117.324C59.8022 117.324 59.4102 117.968 59.4102 119.256V122H58.0522V112.438H59.4102ZM70.17 116.96C70.5153 116.512 71.0473 116.288 71.766 116.288C72.3913 116.288 72.886 116.577 73.25 117.156C73.6046 116.577 74.1786 116.288 74.972 116.288C76.1386 116.288 76.722 117.044 76.722 118.556V122H75.378V119.088C75.378 117.912 75.056 117.324 74.412 117.324C73.768 117.324 73.446 117.977 73.446 119.284V122H72.088V119.2C72.088 117.949 71.8033 117.324 71.234 117.324C70.5246 117.324 70.17 117.977 70.17 119.284V122H68.812V116.47H70.17V116.96ZM78.9127 119.368C78.9127 119.9 79.0294 120.339 79.2627 120.684C79.4961 121.029 79.8181 121.202 80.2287 121.202C80.8727 121.202 81.2834 120.885 81.4607 120.25L82.7487 120.46C82.3287 121.608 81.4887 122.182 80.2287 122.182C79.3887 122.182 78.7167 121.916 78.2127 121.384C77.7181 120.843 77.4707 120.143 77.4707 119.284C77.4707 118.379 77.7087 117.655 78.1847 117.114C78.6701 116.563 79.3234 116.288 80.1447 116.288C80.9754 116.288 81.6194 116.549 82.0767 117.072C82.5434 117.585 82.7767 118.29 82.7767 119.186V119.368H78.9127ZM81.5167 118.612C81.5167 118.229 81.3954 117.893 81.1527 117.604C80.9194 117.315 80.6114 117.17 80.2287 117.17C79.8554 117.17 79.5474 117.324 79.3047 117.632C79.0714 117.931 78.9547 118.257 78.9547 118.612H81.5167ZM93.421 122H92.091V121.496C91.699 121.953 91.1157 122.182 90.341 122.182C89.5663 122.182 88.9457 121.883 88.479 121.286C88.0217 120.689 87.793 119.989 87.793 119.186C87.793 118.383 88.0263 117.702 88.493 117.142C88.969 116.573 89.5757 116.288 90.313 116.288C91.097 116.288 91.6897 116.521 92.091 116.988V116.47H93.421V122ZM92.245 119.228C92.245 118.715 92.1003 118.295 91.811 117.968C91.5217 117.632 91.1483 117.464 90.691 117.464C90.243 117.464 89.8743 117.627 89.585 117.954C89.305 118.271 89.165 118.696 89.165 119.228C89.165 119.76 89.3097 120.189 89.599 120.516C89.8883 120.843 90.2617 121.006 90.719 121.006C91.1763 121.006 91.545 120.847 91.825 120.53C92.105 120.213 92.245 119.779 92.245 119.228ZM96.2221 122H94.8641V117.688H94.2061V116.582H94.8641V114.594H96.2221V116.582H97.3001V117.688H96.2221V122ZM103.764 118.794L105.696 116.47H107.516L105.192 118.906L107.698 122H105.85L103.792 119.312L103.764 122H102.406V112.438H103.764V118.794ZM109.292 119.368C109.292 119.9 109.408 120.339 109.642 120.684C109.875 121.029 110.197 121.202 110.608 121.202C111.252 121.202 111.662 120.885 111.84 120.25L113.128 120.46C112.708 121.608 111.868 122.182 110.608 122.182C109.768 122.182 109.096 121.916 108.592 121.384C108.097 120.843 107.85 120.143 107.85 119.284C107.85 118.379 108.088 117.655 108.564 117.114C109.049 116.563 109.702 116.288 110.524 116.288C111.354 116.288 111.998 116.549 112.456 117.072C112.922 117.585 113.156 118.29 113.156 119.186V119.368H109.292ZM111.896 118.612C111.896 118.229 111.774 117.893 111.532 117.604C111.298 117.315 110.99 117.17 110.608 117.17C110.234 117.17 109.926 117.324 109.684 117.632C109.45 117.931 109.334 118.257 109.334 118.612H111.896ZM115.414 122H114.056V117.688H113.412V116.582H114.056V114.846C114.056 113.157 114.714 112.312 116.03 112.312C116.301 112.312 116.553 112.373 116.786 112.494V113.67C116.543 113.549 116.329 113.488 116.142 113.488C115.89 113.488 115.703 113.581 115.582 113.768C115.47 113.945 115.414 114.379 115.414 115.07V116.582H116.786V117.688H115.414V122ZM122.542 122H121.212V121.496C120.82 121.953 120.237 122.182 119.462 122.182C118.687 122.182 118.067 121.883 117.6 121.286C117.143 120.689 116.914 119.989 116.914 119.186C116.914 118.383 117.147 117.702 117.614 117.142C118.09 116.573 118.697 116.288 119.434 116.288C120.218 116.288 120.811 116.521 121.212 116.988V116.47H122.542V122ZM121.366 119.228C121.366 118.715 121.221 118.295 120.932 117.968C120.643 117.632 120.269 117.464 119.812 117.464C119.364 117.464 118.995 117.627 118.706 117.954C118.426 118.271 118.286 118.696 118.286 119.228C118.286 119.76 118.431 120.189 118.72 120.516C119.009 120.843 119.383 121.006 119.84 121.006C120.297 121.006 120.666 120.847 120.946 120.53C121.226 120.213 121.366 119.779 121.366 119.228ZM125.035 116.974C125.418 116.517 125.983 116.288 126.729 116.288C127.999 116.288 128.633 117.067 128.633 118.626V122H127.289V119.074C127.289 117.907 126.93 117.324 126.211 117.324C125.427 117.324 125.035 117.949 125.035 119.2V122H123.677V116.47H125.035V116.974ZM129.579 116.47H131.259L132.407 118.024L133.387 116.47H135.109L133.177 118.976L135.473 122H133.765L132.253 119.928L130.853 122H129.117L131.469 118.99L129.579 116.47ZM137.285 116.47V119.466C137.285 120.539 137.658 121.076 138.405 121.076C139.151 121.076 139.525 120.539 139.525 119.466V116.47H140.883V119.718C140.883 121.361 140.057 122.182 138.405 122.182C136.753 122.182 135.927 121.361 135.927 119.718V116.47H137.285ZM148.228 115.574H149.306L148.746 118.5L148.718 118.724C148.68 118.929 148.662 119.055 148.662 119.102C148.662 119.307 148.746 119.41 148.914 119.41C149.203 119.41 149.488 119.195 149.768 118.766C150.057 118.337 150.202 117.837 150.202 117.268C150.202 115.345 149.161 114.384 147.08 114.384C146.109 114.384 145.283 114.692 144.602 115.308C143.93 115.924 143.594 116.75 143.594 117.786C143.594 118.813 143.958 119.634 144.686 120.25C145.414 120.857 146.296 121.16 147.332 121.16C148.218 121.16 148.867 121.001 149.278 120.684L150.216 121.454C149.264 121.967 148.251 122.224 147.178 122.224C145.918 122.224 144.821 121.79 143.888 120.922C142.954 120.054 142.488 118.999 142.488 117.758C142.488 116.517 142.95 115.462 143.874 114.594C144.807 113.717 145.894 113.278 147.136 113.278C148.386 113.278 149.39 113.642 150.146 114.37C150.911 115.098 151.294 115.947 151.294 116.918C151.294 117.879 150.995 118.682 150.398 119.326C149.8 119.97 149.198 120.292 148.592 120.292C148.19 120.292 147.99 120.012 147.99 119.452C147.504 119.919 146.991 120.152 146.45 120.152C145.955 120.152 145.54 119.961 145.204 119.578C144.868 119.195 144.7 118.729 144.7 118.178C144.7 117.497 144.914 116.899 145.344 116.386C145.773 115.873 146.277 115.616 146.856 115.616C147.444 115.616 147.85 115.84 148.074 116.288L148.228 115.574ZM146.926 116.722C146.646 116.722 146.389 116.862 146.156 117.142C145.922 117.422 145.806 117.739 145.806 118.094C145.806 118.897 146.058 119.298 146.562 119.298C146.926 119.298 147.224 119.116 147.458 118.752C147.691 118.388 147.808 118.043 147.808 117.716V117.618C147.808 117.357 147.719 117.142 147.542 116.974C147.364 116.806 147.159 116.722 146.926 116.722ZM158.24 121.524C158.24 123.419 157.358 124.366 155.594 124.366C154.81 124.366 154.147 124.151 153.606 123.722C153.065 123.302 152.794 122.751 152.794 122.07H154.236C154.236 122.341 154.371 122.607 154.642 122.868C154.913 123.129 155.216 123.26 155.552 123.26C156.439 123.26 156.882 122.728 156.882 121.664V121.314C156.499 121.799 155.916 122.042 155.132 122.042C154.357 122.042 153.746 121.771 153.298 121.23C152.859 120.689 152.64 120.026 152.64 119.242C152.64 118.393 152.878 117.683 153.354 117.114C153.83 116.545 154.446 116.26 155.202 116.26C155.967 116.26 156.527 116.498 156.882 116.974V116.442H158.24V121.524ZM157.078 119.116C157.078 118.612 156.938 118.206 156.658 117.898C156.378 117.59 156.009 117.436 155.552 117.436C155.095 117.436 154.721 117.604 154.432 117.94C154.152 118.276 154.012 118.701 154.012 119.214C154.012 120.315 154.525 120.866 155.552 120.866C156.019 120.866 156.387 120.703 156.658 120.376C156.938 120.04 157.078 119.62 157.078 119.116ZM164.542 122H163.212V121.496C162.82 121.953 162.237 122.182 161.462 122.182C160.687 122.182 160.067 121.883 159.6 121.286C159.143 120.689 158.914 119.989 158.914 119.186C158.914 118.383 159.147 117.702 159.614 117.142C160.09 116.573 160.697 116.288 161.434 116.288C162.218 116.288 162.811 116.521 163.212 116.988V116.47H164.542V122ZM163.366 119.228C163.366 118.715 163.221 118.295 162.932 117.968C162.643 117.632 162.269 117.464 161.812 117.464C161.364 117.464 160.995 117.627 160.706 117.954C160.426 118.271 160.286 118.696 160.286 119.228C160.286 119.76 160.431 120.189 160.72 120.516C161.009 120.843 161.383 121.006 161.84 121.006C162.297 121.006 162.666 120.847 162.946 120.53C163.226 120.213 163.366 119.779 163.366 119.228ZM167.343 122H165.985V117.688H165.327V116.582H165.985V114.594H167.343V116.582H168.421V117.688H167.343V122ZM169.817 119.368C169.817 119.9 169.934 120.339 170.167 120.684C170.4 121.029 170.722 121.202 171.133 121.202C171.777 121.202 172.188 120.885 172.365 120.25L173.653 120.46C173.233 121.608 172.393 122.182 171.133 122.182C170.293 122.182 169.621 121.916 169.117 121.384C168.622 120.843 168.375 120.143 168.375 119.284C168.375 118.379 168.613 117.655 169.089 117.114C169.574 116.563 170.228 116.288 171.049 116.288C171.88 116.288 172.524 116.549 172.981 117.072C173.448 117.585 173.681 118.29 173.681 119.186V119.368H169.817ZM172.421 118.612C172.421 118.229 172.3 117.893 172.057 117.604C171.824 117.315 171.516 117.17 171.133 117.17C170.76 117.17 170.452 117.324 170.209 117.632C169.976 117.931 169.859 118.257 169.859 118.612H172.421ZM178.18 117.912C177.834 117.567 177.447 117.394 177.018 117.394C176.514 117.394 176.117 117.576 175.828 117.94C175.538 118.304 175.394 118.752 175.394 119.284C175.394 119.807 175.557 120.236 175.884 120.572C176.21 120.908 176.607 121.076 177.074 121.076C177.475 121.076 177.844 120.899 178.18 120.544V121.846C177.788 122.07 177.335 122.182 176.822 122.182C176.019 122.182 175.352 121.897 174.82 121.328C174.288 120.759 174.022 120.063 174.022 119.242C174.022 118.421 174.292 117.725 174.834 117.156C175.384 116.577 176.07 116.288 176.892 116.288C177.377 116.288 177.806 116.405 178.18 116.638V117.912ZM180.516 112.438V116.932C180.87 116.503 181.435 116.288 182.21 116.288C182.788 116.288 183.25 116.512 183.596 116.96C183.941 117.408 184.114 117.963 184.114 118.626V122H182.77V119.074C182.77 117.907 182.41 117.324 181.692 117.324C180.908 117.324 180.516 117.968 180.516 119.256V122H179.158V112.438H180.516ZM187.314 121.202C187.314 121.482 187.216 121.725 187.02 121.93C186.833 122.126 186.6 122.224 186.32 122.224C186.04 122.224 185.802 122.126 185.606 121.93C185.41 121.734 185.312 121.501 185.312 121.23C185.312 120.95 185.41 120.712 185.606 120.516C185.802 120.32 186.035 120.222 186.306 120.222C186.586 120.222 186.824 120.315 187.02 120.502C187.216 120.689 187.314 120.922 187.314 121.202ZM189.559 119.368C189.559 119.9 189.676 120.339 189.909 120.684C190.143 121.029 190.465 121.202 190.875 121.202C191.519 121.202 191.93 120.885 192.107 120.25L193.395 120.46C192.975 121.608 192.135 122.182 190.875 122.182C190.035 122.182 189.363 121.916 188.859 121.384C188.365 120.843 188.117 120.143 188.117 119.284C188.117 118.379 188.355 117.655 188.831 117.114C189.317 116.563 189.97 116.288 190.791 116.288C191.622 116.288 192.266 116.549 192.723 117.072C193.19 117.585 193.423 118.29 193.423 119.186V119.368H189.559ZM192.163 118.612C192.163 118.229 192.042 117.893 191.799 117.604C191.566 117.315 191.258 117.17 190.875 117.17C190.502 117.17 190.194 117.324 189.951 117.632C189.718 117.931 189.601 118.257 189.601 118.612H192.163ZM198.048 121.482C197.684 121.949 197.11 122.182 196.326 122.182C195.542 122.182 194.916 121.883 194.45 121.286C193.992 120.689 193.764 119.989 193.764 119.186C193.764 118.383 193.997 117.702 194.464 117.142C194.94 116.573 195.546 116.288 196.284 116.288C197.068 116.288 197.646 116.517 198.02 116.974L198.048 112.438H199.406V122H198.048V121.482ZM198.202 119.228C198.202 118.743 198.052 118.327 197.754 117.982C197.455 117.637 197.096 117.464 196.676 117.464C196.256 117.464 195.892 117.637 195.584 117.982C195.285 118.318 195.136 118.738 195.136 119.242C195.136 119.737 195.28 120.157 195.57 120.502C195.868 120.838 196.242 121.006 196.69 121.006C197.138 121.006 197.502 120.843 197.782 120.516C198.062 120.18 198.202 119.751 198.202 119.228ZM201.857 116.47V119.466C201.857 120.539 202.23 121.076 202.977 121.076C203.723 121.076 204.097 120.539 204.097 119.466V116.47H205.455V119.718C205.455 121.361 204.629 122.182 202.977 122.182C201.325 122.182 200.499 121.361 200.499 119.718V116.47H201.857Z" fill="black"/>
</svg>
